<?xml version="1.0" encoding="UTF-8"?>
<svg version="1.1" xmlns="http://www.w3.org/2000/svg" width="810" height="810">
<path d="M0 0 C10.84470104 6.65547073 18.57551153 16.47353555 22.05297852 28.703125 C23.53586902 35.56966425 23.24716273 42.54972501 23.1953125 49.53515625 C23.19157537 51.02444772 23.18873171 52.51374168 23.18673706 54.0030365 C23.17915567 57.89430713 23.15955544 61.78542489 23.1373291 65.67663574 C23.11675127 69.65875176 23.10770999 73.64089284 23.09765625 77.62304688 C23.07630349 85.41543375 23.04223523 93.20769533 23 101 C24.18440674 100.98428955 25.36881348 100.9685791 26.58911133 100.95239258 C31.03028422 100.8976343 35.47142796 100.86348473 39.9128418 100.83520508 C41.82630449 100.82022217 43.73973347 100.79982874 45.65307617 100.77368164 C66.09281421 100.50157863 66.09281421 100.50157863 75 104 C75.72243896 104.279646 76.44487793 104.55929199 77.18920898 104.84741211 C88.00354287 109.3363543 95.38887599 118.8252114 99.9921875 129.24609375 C104.91443452 142.39552507 102.03946445 155.19256134 99.73828125 168.57421875 C99.38687248 170.66911516 99.03631609 172.76415472 98.68656921 174.85932922 C97.95306612 179.23404065 97.20973257 183.60693382 96.45922852 187.97875977 C95.50060043 193.56734453 94.56606268 199.15963982 93.63876057 204.75349712 C92.91981873 209.07463468 92.18846444 213.39360059 91.4533596 217.71201515 C91.10398991 219.77295947 90.75835764 221.83454114 90.41662025 223.89676476 C89.93650933 226.78202985 89.43979314 229.66396562 88.9387207 232.5456543 C88.80191895 233.38793076 88.66511719 234.23020721 88.52416992 235.0980072 C87.18261898 242.62634352 84.66538253 249.16324269 78.8125 254.3125 C78.11769531 254.94800781 77.42289063 255.58351563 76.70703125 256.23828125 C70.35437198 260.37255157 63.65874131 261.44621508 56.20672607 261.38095093 C55.3695194 261.3856309 54.53231272 261.39031087 53.66973615 261.39513266 C50.8900101 261.40701151 48.11078359 261.39765365 45.33105469 261.38818359 C43.3280102 261.39225233 41.32496795 261.39759591 39.32192993 261.40411377 C33.90075614 261.41775361 28.47975421 261.41250339 23.05857754 261.40297651 C17.38078291 261.39536687 11.70300274 261.40242876 6.02520752 261.40713501 C-3.50405514 261.41258697 -13.03324795 261.40541374 -22.5625 261.39111328 C-33.58086329 261.37476914 -44.59906019 261.38009037 -55.61741948 261.3965925 C-65.08258338 261.41020094 -74.54769717 261.41213073 -84.01286769 261.40427649 C-89.66409583 261.39959886 -95.3152457 261.39897802 -100.96646881 261.40888596 C-106.27546115 261.41754461 -111.58423847 261.41155378 -116.89320755 261.39420319 C-118.84230568 261.39023327 -120.79142188 261.39138099 -122.74051285 261.39799118 C-125.39880725 261.40617629 -128.05641041 261.39592209 -130.71466064 261.38095093 C-131.48771081 261.38764309 -132.26076098 261.39433526 -133.05723691 261.40123022 C-137.53593401 261.35222733 -140.49814972 260.86871566 -144 258 C-146.29074492 254.79394845 -146.25525144 251.88558635 -146.26742554 248.01663208 C-146.28022049 246.1786908 -146.28022049 246.1786908 -146.29327393 244.30361938 C-146.29257493 242.9486693 -146.29165188 241.59371933 -146.29052734 240.23876953 C-146.29651278 238.8095057 -146.30331836 237.38024511 -146.31088257 235.95098877 C-146.32854831 232.07076394 -146.33323818 228.19062731 -146.33451414 224.31036615 C-146.33593597 221.88541783 -146.34020617 219.46049192 -146.34550858 217.03554916 C-146.36401073 208.57365241 -146.37217895 200.11181866 -146.37060547 191.64990234 C-146.369404 183.76546716 -146.39050676 175.8813057 -146.4220928 167.99693978 C-146.44825494 161.22483379 -146.45897279 154.45281721 -146.45769465 147.68066108 C-146.457185 143.63725085 -146.46286985 139.59408387 -146.48405075 135.55072403 C-146.5034323 131.74702431 -146.50355857 127.94379992 -146.48901749 124.14008331 C-146.48692815 122.74611847 -146.49163784 121.35212388 -146.5037384 119.95820999 C-146.59978223 108.12575113 -146.59978223 108.12575113 -144.15713501 104.18624878 C-142 102 -142 102 -139 101 C-136.92755127 101.10421753 -136.92755127 101.10421753 -134.50488281 101.41357422 C-114.52048147 103.68319868 -92.55529733 105.70700081 -75.47265625 93.328125 C-48.65850195 71.93150601 -39.5016923 42.81736479 -32.93675232 10.56549072 C-32.72075882 9.509245 -32.50476532 8.45299927 -32.28222656 7.36474609 C-32.10451721 6.44535248 -31.92680786 5.52595886 -31.74371338 4.57870483 C-30.69490416 0.94212994 -29.27430733 -2.08746636 -26.15625 -4.3203125 C-17.98533537 -6.89592689 -7.48082191 -3.41921223 0 0 Z M-15 15 C-15.98330009 18.18623817 -16.96106652 21.37415115 -17.9375 24.5625 C-18.40023315 26.06961548 -18.40023315 26.06961548 -18.87231445 27.60717773 C-20.75881227 33.79300548 -22.57697969 39.99358549 -24.328125 46.21875 C-24.72391515 47.61649036 -25.11982963 49.01419551 -25.51586914 50.41186523 C-26.10044741 52.47564258 -26.68133266 54.54008903 -27.25045776 56.60818481 C-27.78643852 58.55521514 -28.33636855 60.49838872 -28.88671875 62.44140625 C-29.19826904 63.56232666 -29.50981934 64.68324707 -29.83081055 65.83813477 C-32.28778886 72.48259626 -35.74293006 75.81250859 -41.33649635 79.93027687 C-56.99568177 91.52715853 -73.40009737 105.12703067 -76.75418663 125.21973228 C-78.74082632 141.29602207 -77.78938353 157.69965725 -76.80904162 173.81795466 C-76.36402449 181.27053555 -76.15652347 188.72493518 -75.96262062 196.1875962 C-75.56042453 211.47379574 -74.87992659 226.73335725 -74 242 C-56.0934545 242.11679865 -38.18700785 242.20497104 -20.28016376 242.25906086 C-11.96569905 242.28484322 -3.65147101 242.31999411 4.6628418 242.37719727 C11.90956604 242.42703156 19.15611888 242.45929079 26.40300971 242.47044247 C30.24032643 242.47696131 34.0771528 242.49228219 37.91431236 242.52865028 C41.52674484 242.56261077 45.13848544 242.57305324 48.75106239 242.56553841 C50.70754448 242.56756797 52.66395134 242.59446308 54.62023926 242.62210083 C61.26272123 242.63175615 61.26272123 242.63175615 67.20568848 240.00367737 C69.50871557 236.14841017 70.27417713 232.77715912 70.94458008 228.37353516 C71.09161377 227.51598129 71.23864746 226.65842743 71.39013672 225.77488708 C71.86949206 222.94916113 72.31981197 220.11964345 72.76953125 217.2890625 C73.09708562 215.3173091 73.42626761 213.34582546 73.75700378 211.37460327 C74.44557133 207.24578541 75.12096722 203.11511276 75.78588867 198.98242188 C76.63676427 193.69469258 77.50996429 188.41098303 78.39178944 183.12833595 C79.23372096 178.079006 80.06459065 173.0278748 80.89453125 167.9765625 C81.0530488 167.01730488 81.21156635 166.05804726 81.37488747 165.06972122 C81.82346174 162.34250923 82.26417639 159.61414705 82.70239258 156.88525391 C82.90100136 155.68646355 82.90100136 155.68646355 83.10362244 154.4634552 C84.4887072 145.71831256 84.29026825 138.89510903 80 131 C75.81085604 125.2914774 70.68690329 122.17483378 64 120 C59.96620693 119.4636341 55.98669522 119.46516238 51.921875 119.49609375 C50.79227356 119.48667252 49.66267212 119.47725128 48.49884033 119.46754456 C44.91570586 119.43903102 41.33323845 119.43581252 37.75 119.4375 C34.15257764 119.43389103 30.55563489 119.42437549 26.95831299 119.39674377 C24.72688884 119.37996607 22.49530615 119.37707113 20.26385498 119.38975525 C10.41517605 119.32274376 10.41517605 119.32274376 7 116 C5.09185238 111.43405084 4.71525963 107.26188626 4.74462891 102.37744141 C4.74100845 101.63839066 4.737388 100.8993399 4.73365784 100.13789368 C4.7267943 98.54196018 4.72425266 96.94600337 4.72560501 95.35005569 C4.72657519 92.81844639 4.7135701 90.28725595 4.69662476 87.75570679 C4.65050193 80.56112895 4.62575505 73.36659574 4.61914062 66.171875 C4.61411036 61.76218752 4.58978644 57.35293962 4.55381393 52.94340134 C4.54405331 51.26980612 4.54166348 49.59615016 4.54698563 47.92253494 C4.57748317 37.86101431 4.51160726 30.38886423 -2.25 22.3125 C-7.99606007 17.21327081 -7.99606007 17.21327081 -15 15 Z M-127 120 C-127 160.26 -127 200.52 -127 242 C-115.78 242 -104.56 242 -93 242 C-93 201.74 -93 161.48 -93 120 C-104.22 120 -115.44 120 -127 120 Z " fill="#A6A6A6" transform="translate(197,240)"/>
<path d="M0 0 C0.83590469 -0.00638882 1.67180938 -0.01277764 2.53304452 -0.01936007 C5.32689784 -0.03458935 8.11932834 -0.01416265 10.91313171 0.00622559 C12.91909759 0.00272369 14.92506069 -0.00293566 16.93101501 -0.0105896 C22.37548965 -0.02484 27.81945936 -0.00777153 33.26388574 0.01569557 C38.96517766 0.03580738 44.66644866 0.02992469 50.36776733 0.02758789 C59.94531067 0.02764147 69.52265679 0.04740098 79.10014343 0.07946777 C90.16325109 0.11632931 101.22610011 0.12514768 112.28926116 0.11817026 C122.93916514 0.11185723 133.58898068 0.12263644 144.23886681 0.14213562 C148.7669571 0.15029724 153.29500211 0.15302142 157.82309914 0.15144348 C163.16081492 0.15056231 168.49828624 0.16484344 173.8359375 0.19067001 C175.79140729 0.19781209 177.74690312 0.19992491 179.70238304 0.19655228 C182.3791622 0.19281735 185.05523586 0.20765471 187.73193359 0.22705078 C188.4992697 0.22172286 189.26660581 0.21639493 190.05719453 0.21090555 C197.98674709 0.30950996 205.1506187 2.32589844 211.00643921 7.85021973 C216.84131081 14.5179223 218.6287994 22.00863305 220.00566101 30.55895996 C220.20672958 31.72209717 220.40779816 32.88523437 220.61495972 34.08361816 C221.16164049 37.2610556 221.69368613 40.44056977 222.22129059 43.62121582 C222.79163658 47.02514102 223.38727083 50.42463239 223.98075867 53.82458496 C225.22348145 60.96299276 226.43418954 68.10647774 227.63334656 75.25231934 C228.2520669 78.93654592 228.88143266 82.61887842 229.51283741 86.3009491 C230.00699008 89.19467225 230.49311073 92.08970475 230.9771328 94.98513794 C231.20574192 96.34419554 231.43729604 97.70276179 231.67211342 99.0607605 C234.22630935 113.86448075 235.13125362 127.27463937 226.74394226 140.49645996 C218.42039274 151.85052876 208.7022956 158.11968324 194.70454407 160.3616333 C187.41652211 161.2431662 180.00627095 160.91901928 172.68144226 160.80895996 C170.91452671 160.7938706 169.14759856 160.78018979 167.38066101 160.76794434 C163.10560263 160.7353105 158.83116685 160.68376907 154.55644226 160.62145996 C154.56088348 161.37155334 154.56532471 162.12164673 154.56990051 162.89447021 C154.61021476 170.01333361 154.64054618 177.13215649 154.6600666 184.25110245 C154.67044007 187.90976133 154.68447933 191.56832475 154.70732117 195.22692871 C154.72928213 198.76717803 154.74105908 202.30733637 154.74619675 205.84764862 C154.75161228 207.83480331 154.76718661 209.82192213 154.78303528 211.809021 C154.78495439 227.56693671 152.43356496 241.55803058 141.49394226 253.55895996 C133.54512901 260.90371832 122.9041589 265.76896738 112.11894226 265.99645996 C110.80023132 266.04544434 109.48152039 266.09442871 108.12284851 266.14489746 C104.55644226 265.62145996 104.55644226 265.62145996 102.45074463 263.43283081 C100.55079204 260.61307436 99.59907273 258.37268932 98.68119812 255.11608887 C98.37085129 254.03791901 98.06050446 252.95974915 97.74075317 251.84890747 C97.42082901 250.69361542 97.10090485 249.53832336 96.77128601 248.34802246 C96.4289241 247.15091644 96.08656219 245.95381042 95.73382568 244.72042847 C94.8274537 241.54597439 93.93082738 238.3689955 93.03965759 235.19024658 C91.78512241 230.72171041 90.5158691 226.25735973 89.24334717 221.79391479 C88.5678223 219.42146261 87.89752978 217.04751259 87.23318481 214.67190552 C81.32621896 193.81883562 65.82269625 175.17494622 47.67326355 163.22442627 C33.68690522 156.03130896 14.3796462 158.55114526 -0.74168396 160.28266907 C-7.77461427 161.01529885 -7.77461427 161.01529885 -11.55488586 158.78967285 C-14.58166788 155.31489893 -14.57554603 153.30327587 -14.60418701 148.75798035 C-14.61423264 147.50874786 -14.62427826 146.25951538 -14.6346283 144.97242737 C-14.64065861 143.58029235 -14.64654359 142.18815669 -14.65229797 140.79602051 C-14.66183444 139.33587416 -14.67172551 137.8757301 -14.6819458 136.41558838 C-14.71335235 131.61314584 -14.7335987 126.81068586 -14.75215149 122.00817871 C-14.75544881 121.19152748 -14.75874613 120.37487626 -14.76214337 119.53347802 C-14.79292291 111.83389963 -14.81963456 104.13431739 -14.83656216 96.43469524 C-14.85847886 86.58078475 -14.90046952 76.72741847 -14.96999973 66.87372559 C-15.01721322 59.9479774 -15.04149206 53.02237618 -15.04875904 46.09647208 C-15.05371908 41.95844278 -15.06883219 37.82102662 -15.10850334 33.68317223 C-15.14533748 29.78991621 -15.1537908 25.89762431 -15.14049721 22.00422668 C-15.14055121 20.57594765 -15.15087027 19.14762625 -15.17224884 17.71950722 C-15.19989185 15.76849746 -15.18685164 13.81703813 -15.17181396 11.8658905 C-15.1760459 10.77431987 -15.18027784 9.68274923 -15.18463802 8.5581007 C-14.34003413 5.21123226 -13.05622611 3.59953354 -10.27196807 1.55650359 C-6.97746845 -0.12829376 -3.60453544 -0.05829377 0 0 Z M3.55644226 19.62145996 C3.55644226 59.88145996 3.55644226 100.14145996 3.55644226 141.62145996 C15.10644226 141.62145996 26.65644226 141.62145996 38.55644226 141.62145996 C38.55644226 101.36145996 38.55644226 61.10145996 38.55644226 19.62145996 C27.00644226 19.62145996 15.45644226 19.62145996 3.55644226 19.62145996 Z M56.55644226 19.62145996 C55.53736938 35.56275297 54.78713619 51.4948799 54.32851887 67.46091938 C54.10953874 74.88193865 53.81240585 82.28223589 53.31254578 89.69006348 C50.12614944 125.45748208 50.12614944 125.45748208 63.25206757 157.32849884 C71.95197364 167.15569315 82.17790623 175.41538324 92.215065 183.82030487 C104.30739001 194.25162742 107.58581252 205.92085572 110.24394226 221.30895996 C110.80437552 223.81418635 111.37933421 226.31620621 111.96855164 228.81481934 C113.33110183 234.72478121 114.52156864 240.64580327 115.55644226 246.62145996 C122.81036094 244.65563692 127.78615088 241.96795161 131.91581726 235.48864746 C134.72980568 229.96262673 135.70282669 225.28724373 135.69828796 219.09240723 C135.7034996 217.94558975 135.7034996 217.94558975 135.70881653 216.77560425 C135.71616653 215.1157612 135.72151594 213.45590837 135.72510719 211.79605293 C135.73227431 209.16924693 135.74794171 206.54262754 135.76644897 203.9158783 C135.81891411 196.44756593 135.86691661 188.97935705 135.88237 181.51086426 C135.89244254 176.94253435 135.92174538 172.37467574 135.9636898 167.80653191 C135.97601241 166.06544494 135.98111876 164.32429146 135.97889137 162.58316231 C135.97654243 160.14823068 135.99867083 157.71465568 136.02641296 155.27990723 C136.01981155 154.56029312 136.01321014 153.84067902 136.00640869 153.09925842 C136.06959856 149.72436815 136.32791079 147.92063581 138.40206909 145.20530701 C141.73716065 142.75342217 144.43447321 142.49356009 148.45170593 142.46374512 C149.94422127 142.4483519 149.94422127 142.4483519 151.46688843 142.43264771 C152.54187088 142.42534637 153.61685333 142.41804504 154.72441101 142.41052246 C157.00241288 142.38244534 159.28040758 142.35378083 161.55839539 142.32458496 C165.14831781 142.28339194 168.73810746 142.24650288 172.32817078 142.22009277 C175.79386592 142.19238823 179.25895242 142.14650663 182.72441101 142.09802246 C183.78927231 142.09476959 184.85413361 142.09151672 185.95126343 142.08816528 C195.15024288 141.93739465 201.96257508 140.06380717 208.79081726 133.62536621 C213.96465173 127.75329302 214.89622873 121.94644889 214.79048157 114.32040405 C214.2992602 106.55674928 212.89415966 98.91322213 211.59941101 91.25036621 C211.29217132 89.39628438 210.98548443 87.54211086 210.67932129 85.68785095 C210.03916961 81.82486559 209.39199852 77.96314057 208.73979187 74.10217285 C207.90548892 69.15940045 207.0896069 64.21379039 206.27895641 59.2670908 C205.65081947 55.44739407 205.01271762 51.62941362 204.37162209 47.81187248 C204.06668191 45.98837399 203.76489981 44.1643444 203.46637535 42.33978462 C203.04846852 39.79455541 202.61710697 37.25196217 202.18217468 34.70959473 C202.06205017 33.96096161 201.94192566 33.21232849 201.81816101 32.44100952 C200.8865385 27.12033803 199.3800864 23.4451041 195.55644226 19.62145996 C193.03032721 19.3222873 193.03032721 19.3222873 190.03895569 19.38095093 C188.86663895 19.3782016 187.6943222 19.37545227 186.48648071 19.37261963 C185.19391861 19.37981018 183.90135651 19.38700073 182.56962585 19.39440918 C181.19989022 19.3949731 179.83015398 19.39465711 178.4604187 19.39352417 C174.73539668 19.3929489 171.01050272 19.40473135 167.28551054 19.41867208 C163.39508426 19.43115042 159.50465524 19.43234765 155.61421204 19.4347229 C148.24418744 19.44094621 140.87422199 19.4573685 133.50422347 19.47742188 C125.11498588 19.49975445 116.72574552 19.51076765 108.33648562 19.52081275 C91.07643693 19.54173402 73.81644584 19.57692647 56.55644226 19.62145996 Z " fill="#A6A6A6" transform="translate(525.4435577392578,290.3785400390625)"/>
</svg>
