<?xml version="1.0" encoding="UTF-8"?>
<svg version="1.1" xmlns="http://www.w3.org/2000/svg" width="810" height="810">
<path d="M0 0 C0.92135742 0.00418945 1.84271484 0.00837891 2.79199219 0.01269531 C21.91242246 0.32901359 37.49899741 8.73225971 50.6875 22.3125 C54.49005896 27.02711184 57.58586543 31.61383703 59.6875 37.3125 C60.3475 37.3125 61.0075 37.3125 61.6875 37.3125 C61.873125 36.508125 62.05875 35.70375 62.25 34.875 C67.18576171 22.6428949 79.1944573 12.24344116 90.6875 6.3125 C108.48650885 -1.06711054 126.41051025 -2.1765993 144.6875 4.3125 C161.66566896 11.5620279 172.57940417 23.88637989 179.5625 40.6875 C181.82619148 47.0180303 183.02960714 53.45920254 184.109375 60.07421875 C184.50781445 63.18901016 184.50781445 63.18901016 185.6875 65.3125 C186.34621094 65.15265625 187.00492188 64.9928125 187.68359375 64.828125 C204.15549704 62.00069817 219.52673695 65.72318471 233.6875 74.3125 C237.30363341 77.07089826 240.52152079 80.05253996 243.6875 83.3125 C244.24824219 83.85261719 244.80898438 84.39273438 245.38671875 84.94921875 C257.18576383 97.24376179 260.12267215 114.43159936 259.97998047 130.79589844 C259.60008468 145.48733065 259.60008468 145.48733065 256.6875 151.3125 C257.904375 151.374375 259.12125 151.43625 260.375 151.5 C274.83480693 153.13695927 289.67184411 161.5839407 298.75 172.9375 C310.71897408 189.73886735 313.6658679 209.7414001 311.26171875 229.87890625 C307.55871874 248.39390631 296.9092468 261.52354975 281.70703125 271.984375 C281.04058594 272.42265625 280.37414062 272.8609375 279.6875 273.3125 C280.11160156 273.69019531 280.53570313 274.06789063 280.97265625 274.45703125 C294.10177476 286.778204 300.44425713 303.31294664 301.0625 321.0625 C300.67814251 341.74997666 290.6456101 356.73882999 276.37890625 370.546875 C273.04199945 373.59992394 270.13334918 376.06210492 265.6875 377.3125 C266.0175 378.3025 266.3475 379.2925 266.6875 380.3125 C268.42201587 401.00842805 265.22929012 422.9184037 251.6875 439.3125 C250.99140625 440.15683594 250.2953125 441.00117187 249.578125 441.87109375 C238.80467341 453.74719727 224.00498422 459.33823571 208.23046875 460.5859375 C199.38586955 460.84402906 191.25377452 459.328094 182.6875 457.3125 C182.58308594 458.47845703 182.58308594 458.47845703 182.4765625 459.66796875 C181.38907531 464.6908675 179.27816536 469.00739653 177.0625 473.625 C176.64871094 474.52412109 176.23492188 475.42324219 175.80859375 476.34960938 C168.66807142 491.3577285 156.2860781 505.36248833 140.60546875 511.5234375 C123.90456802 517.33065575 104.44702181 517.42356321 88.16918945 510.00512695 C76.79533633 504.42576371 68.25774 497.21395966 61.6875 486.3125 C61.6875 485.6525 61.6875 484.9925 61.6875 484.3125 C59.36500318 486.51713877 57.50992658 488.85325176 55.625 491.4375 C45.44465174 504.47511857 32.6534618 511.92533068 16.41796875 514.87890625 C-2.295469 517.05397598 -20.79820862 514.88424179 -36.203125 503.1015625 C-38.68295933 500.92613897 -41.01284049 498.67627641 -43.3125 496.3125 C-43.86164063 495.79558594 -44.41078125 495.27867187 -44.9765625 494.74609375 C-53.39092004 486.12925167 -58.05281856 472.61844775 -61.3125 461.3125 C-61.53679687 460.55582031 -61.76109375 459.79914063 -61.9921875 459.01953125 C-62.44810623 457.455043 -62.88373282 455.88464633 -63.3125 454.3125 C-64.10914063 454.66183594 -64.90578125 455.01117187 -65.7265625 455.37109375 C-66.78617187 455.82613281 -67.84578125 456.28117187 -68.9375 456.75 C-69.98164063 457.20246094 -71.02578125 457.65492188 -72.1015625 458.12109375 C-84.53989552 462.73629031 -97.57733435 460.50657235 -109.375 455.1875 C-121.09761244 448.96277416 -129.26544407 438.96257726 -133.5 426.48828125 C-135.49506456 418.6902645 -136.4988567 410.35689761 -136.3125 402.3125 C-136.97894531 402.92996094 -137.64539063 403.54742188 -138.33203125 404.18359375 C-143.0193203 408.49065516 -147.72068201 412.70087878 -152.6875 416.6875 C-157.4839071 420.55468863 -161.9829146 424.66230716 -166.47607422 428.87060547 C-170.66561567 432.7723253 -175.03413825 436.38567487 -179.5 439.96875 C-183.28735715 443.12488095 -186.8630225 446.48529845 -190.45898438 449.85571289 C-194.77524461 453.87738965 -199.24683304 457.61572995 -203.875 461.27734375 C-206.42241373 463.32669332 -206.42241373 463.32669332 -208.87890625 466 C-211.21582817 468.22063849 -212.13582745 469.02473519 -215.25 469.375 C-216.19166016 469.51615234 -216.19166016 469.51615234 -217.15234375 469.66015625 C-223.02408771 468.71515587 -228.39755814 462.92583709 -232.875 459.25 C-233.57608887 458.67781738 -234.27717773 458.10563477 -234.99951172 457.51611328 C-239.8875172 453.51502193 -244.71284226 449.44506944 -249.51342773 445.33984375 C-253.4046974 442.03109229 -257.39869546 438.87610825 -261.4375 435.75 C-266.75252118 431.63043919 -271.74978332 427.27394545 -276.68359375 422.69921875 C-280.11495991 419.58396656 -283.70465365 416.69311056 -287.30859375 413.78125 C-292.11154172 409.83396376 -296.78104893 405.73514183 -301.46875 401.65234375 C-305.16737997 398.43195263 -308.89423568 395.24554005 -312.625 392.0625 C-317.51294286 387.8862351 -322.32815157 383.64067712 -327.08984375 379.3203125 C-329.12455752 377.48227581 -331.18004889 375.67313935 -333.25 373.875 C-337.44692081 370.22071138 -341.5490276 366.46505027 -345.66015625 362.71484375 C-347.83710996 360.74308156 -350.03088674 358.79884663 -352.25 356.875 C-356.64446199 353.05804431 -360.91266232 349.10582829 -365.1875 345.15625 C-367.48486915 343.04761868 -369.82163739 340.99031472 -372.17578125 338.9453125 C-376.37286604 335.28519156 -380.44925049 331.50833956 -384.5 327.6875 C-385.23395996 326.99672363 -385.96791992 326.30594727 -386.72412109 325.59423828 C-391.92892592 320.67425665 -397.01769497 315.65292316 -402.0480957 310.55541992 C-404.66999867 307.91008843 -407.31462804 305.37075496 -410.1875 303 C-413.29083096 300.43670948 -415.84599269 297.55547862 -418.4453125 294.48828125 C-420.42468583 292.181773 -422.49034194 289.97332974 -424.5625 287.75 C-439.85623899 270.6965753 -451.956506 250.60745641 -460.3125 229.3125 C-460.6849585 228.36479736 -460.6849585 228.36479736 -461.06494141 227.39794922 C-473.41340533 195.16186911 -473.49415011 159.6599103 -459.93359375 127.87109375 C-448.42753862 102.61322332 -428.05229194 82.81404232 -402.25195312 72.48779297 C-397.67821129 70.80640046 -393.03975183 69.48521532 -388.3125 68.3125 C-387.04019531 67.99410156 -385.76789063 67.67570312 -384.45703125 67.34765625 C-351.0375134 60.07379931 -315.61449821 69.89094613 -287.22363281 88.01953125 C-284.19262063 90.0370037 -281.23994537 92.14808976 -278.3125 94.3125 C-277.4460083 94.94792725 -277.4460083 94.94792725 -276.56201172 95.59619141 C-258.88040187 108.68875631 -242.27845373 124.49020724 -229.3125 142.3125 C-226.28804816 139.47134827 -223.68796563 136.56387012 -221.1875 133.25 C-216.60281443 127.26000864 -211.48386169 121.7910713 -206.3125 116.3125 C-205.58160156 115.52746094 -204.85070312 114.74242187 -204.09765625 113.93359375 C-197.74788954 107.32368762 -190.66973686 101.74631438 -183.3125 96.3125 C-182.73258301 95.88291992 -182.15266602 95.45333984 -181.55517578 95.01074219 C-153.72315995 74.70532879 -117.68352487 63.15451589 -83.1484375 67.94921875 C-77.49520201 68.84201153 -71.84440142 69.82868269 -66.3125 71.3125 C-66.34730469 70.21292969 -66.38210938 69.11335938 -66.41796875 67.98046875 C-66.82521596 49.93266384 -61.82911241 33.82207957 -49.3125 20.3125 C-35.89246882 6.74196379 -19.00428563 -0.11847189 0 0 Z M-38.45703125 35.640625 C-46.01983601 46.53106385 -48.77435873 56.14207695 -48.3125 69.3125 C-48.29896484 70.80523437 -48.29896484 70.80523437 -48.28515625 72.328125 C-47.92497225 76.85254159 -47.36219102 79.38151395 -43.89453125 82.45703125 C-40.75637111 84.51530704 -37.54575635 86.40787393 -34.3125 88.3125 C-15.19449515 101.72129245 -4.61124288 121.53247364 0.265625 143.97265625 C2.19412778 159.23996992 1.37885165 174.66557371 -3.3125 189.3125 C-3.65152344 190.38757813 -3.99054688 191.46265625 -4.33984375 192.5703125 C-13.2016109 217.73646976 -30.63354382 244.33064157 -52.3125 260.3125 C-56.62880244 260.23934233 -58.71672381 259.70968413 -62.3125 257.3125 C-63.41639285 252.89692861 -63.89630467 250.59131023 -62 246.4375 C-59.83047193 243.6587209 -57.26717247 241.27355716 -54.75 238.8125 C-35.0590004 219.46898863 -16.68903257 191.11838936 -16.02001953 162.84204102 C-15.85233804 142.70185745 -21.79418999 125.63187122 -35.3125 110.3125 C-51.95826368 93.85608834 -73.86615196 85.60568434 -97.18457031 85.28515625 C-132.85050469 85.74346105 -164.43299793 101.62358075 -189.86425781 125.93164062 C-191.24984332 127.25275857 -192.65191785 128.55651771 -194.0546875 129.859375 C-204.64018743 139.9846358 -213.56022496 151.82766297 -221.04296875 164.40625 C-222.3125 166.3125 -222.3125 166.3125 -224.3125 167.3125 C-231.61684783 167.54438406 -231.61684783 167.54438406 -235.3125 166.3125 C-236.01906467 164.9998734 -236.67600821 163.66049868 -237.3125 162.3125 C-238.7801794 160.25492637 -240.26562643 158.24593727 -241.8125 156.25 C-242.25247314 155.67999268 -242.69244629 155.10998535 -243.14575195 154.52270508 C-246.89316986 149.72971295 -250.88468002 145.23497332 -255.03125 140.78125 C-256.92480608 138.73205918 -258.7184786 136.6450972 -260.5 134.5 C-283.84321717 107.89199721 -318.36405602 86.36841364 -354.25 83.6875 C-378.64236611 82.15627428 -402.23197572 88.65959389 -420.828125 104.9453125 C-439.15746761 122.41006348 -450.67806651 144.66810762 -451.66015625 170.125 C-452.20747634 196.78038543 -446.2065603 220.02406473 -433.3125 243.3125 C-432.96461426 243.94494629 -432.61672852 244.57739258 -432.25830078 245.22900391 C-424.77008132 258.6735279 -415.42171201 270.33515683 -404.91015625 281.52734375 C-402.58952984 284.01547402 -400.35517401 286.55627965 -398.125 289.125 C-392.80302303 295.07139666 -386.90812514 300.40356762 -381.05859375 305.8203125 C-378.24748082 308.42661478 -375.49958972 311.07752156 -372.8125 313.8125 C-369.8727902 316.79684748 -366.79804211 319.55212584 -363.625 322.28515625 C-360.74670592 324.80852555 -357.93382268 327.39999166 -355.125 330 C-354.29766357 330.76558228 -354.29766357 330.76558228 -353.45361328 331.54663086 C-351.16289075 333.66817103 -348.87397294 335.79165371 -346.58496094 337.91503906 C-338.01301488 345.86568772 -338.01301488 345.86568772 -329.2578125 353.61328125 C-326.9758471 355.60656428 -324.74021426 357.64743027 -322.5 359.6875 C-319.05871795 362.79778851 -315.54928702 365.77728312 -311.9375 368.6875 C-307.92423716 371.93202517 -304.08834616 375.29997183 -300.3125 378.8125 C-295.7799113 383.02521806 -291.1032549 386.99279102 -286.28515625 390.875 C-282.77931131 393.74970071 -279.35588358 396.70982001 -275.9375 399.6875 C-266.45588162 407.94084238 -256.88007649 416.06173543 -247.12890625 423.99609375 C-243.97464494 426.59037524 -240.86058226 429.22869052 -237.75 431.875 C-227.93306426 441.82838661 -227.93306426 441.82838661 -216.50390625 447.28125 C-213.17300476 445.80876592 -210.82658141 443.31886651 -208.25 440.8125 C-204.21640903 436.98285465 -200.16223652 433.28717939 -195.8125 429.8125 C-191.64584037 426.46948239 -187.70828234 422.96136656 -183.8125 419.3125 C-179.07383536 414.87417326 -174.19130674 410.7210775 -169.125 406.65625 C-165.91400066 403.98041722 -162.86222364 401.16890293 -159.8125 398.3125 C-155.06306306 393.86448171 -150.17367486 389.69250412 -145.09375 385.62109375 C-141.33363711 382.49998881 -137.75767997 379.19661104 -134.19506836 375.85327148 C-129.41881932 371.39248826 -126.5360182 371.15019511 -120.15356445 371.10375977 C-119.30929901 371.09397598 -118.46503357 371.0841922 -117.59518433 371.07411194 C-114.78873264 371.04410066 -111.98232944 371.02274244 -109.17578125 371.00390625 C-107.73376878 370.99404851 -107.73376878 370.99404851 -106.26262474 370.98399162 C-101.16199593 370.95135398 -96.0613882 370.92692831 -90.96069336 370.9074707 C-86.75985692 370.88974736 -82.55970315 370.85507915 -78.35913086 370.80493164 C-73.27331983 370.74429092 -68.18813552 370.71393298 -63.10198021 370.70429802 C-61.17449853 370.69580624 -59.24703069 370.67714606 -57.31975746 370.6475544 C-44.78863489 370.46570254 -35.65935754 371.87082123 -24.3125 377.3125 C-8.92848442 382.78469774 9.58903524 384.23622455 24.6875 377.3125 C31.86995529 373.40020233 37.09450463 367.09148612 39.6875 359.3125 C39.77108958 357.10160055 39.79481764 354.88823922 39.78515625 352.67578125 C39.78032227 350.72768555 39.78032227 350.72768555 39.77539062 348.74023438 C39.76703531 347.36848892 39.75857037 345.99674413 39.75 344.625 C39.74498335 343.24153805 39.74042073 341.85807437 39.73632812 340.47460938 C39.72452529 337.08719605 39.70806019 333.69986967 39.6875 330.3125 C38.50196533 330.30839111 37.31643066 330.30428223 36.0949707 330.30004883 C31.68697928 330.27824011 27.27987828 330.22393259 22.87231445 330.15991211 C20.96647693 330.13674723 19.06051167 330.12233993 17.15454102 330.11694336 C14.41081277 330.10764259 11.66908937 330.06662929 8.92578125 330.01953125 C7.65206413 330.02543022 7.65206413 330.02543022 6.35261536 330.03144836 C1.9926143 329.92445397 0.20061143 329.70998532 -3.35473633 326.95581055 C-5.3125 324.3125 -5.3125 324.3125 -5.875 321.3125 C-4.60417505 314.53476693 1.65544986 310.55065873 6.6875 306.3125 C3.73393891 305.02543182 2.51678 305.36859661 -0.60546875 306.39453125 C-1.91041538 306.95587134 -3.20826827 307.53388448 -4.5 308.125 C-5.19689941 308.43759766 -5.89379883 308.75019531 -6.61181641 309.07226562 C-15.40224377 313.12727428 -24.97281638 317.77210484 -32.38207054 324.07227993 C-39.66059019 330.04174986 -46.02407808 330.27695292 -55.14697266 330.10375977 C-56.62000446 330.10182126 -58.09304331 330.10306062 -59.56607056 330.10720825 C-62.72134695 330.1096672 -65.87546875 330.09055811 -69.03053665 330.05441475 C-74.03463839 329.99787977 -79.0379588 329.9942956 -84.04232788 329.99803162 C-93.77274008 329.9983857 -103.502557 329.94871557 -113.23277283 329.89091492 C-125.59545862 329.81817149 -137.95785036 329.75903481 -150.32077825 329.76362842 C-155.27942873 329.76362013 -160.23671278 329.7342089 -165.19506383 329.68086064 C-168.30101398 329.65345652 -171.40663879 329.65137323 -174.5126915 329.65550613 C-175.93476856 329.65234142 -177.35687166 329.63910973 -178.7787323 329.6140995 C-188.47516715 329.45077238 -196.07142723 331.17309689 -204.89439964 334.88403225 C-208.84773339 336.53618086 -212.65096556 337.63270135 -216.8125 338.625 C-218.0603125 338.93050781 -219.308125 339.23601562 -220.59375 339.55078125 C-238.02421963 343.12109803 -256.01104048 342.25642721 -271.5625 332.96875 C-284.32422323 323.99566336 -290.56654893 311.4859556 -293.76953125 296.48046875 C-295.70084954 285.21212966 -298.06580187 269.11953539 -293.3125 258.3125 C-289.97785107 255.09715784 -287.33914348 254.90401462 -282.796875 254.80078125 C-281.54648437 254.76533203 -280.29609375 254.72988281 -279.0078125 254.69335938 C-277.70585937 254.67080078 -276.40390625 254.64824219 -275.0625 254.625 C-273.74507812 254.59083984 -272.42765625 254.55667969 -271.0703125 254.52148438 C-267.81779322 254.43899294 -264.56554404 254.3698433 -261.3125 254.3125 C-261.39701416 253.64065674 -261.48152832 252.96881348 -261.56860352 252.27661133 C-261.67100342 251.3873999 -261.77340332 250.49818848 -261.87890625 249.58203125 C-262.03661499 248.26489136 -262.03661499 248.26489136 -262.19750977 246.92114258 C-262.4063605 242.18320185 -261.08513341 238.25418564 -257.87890625 234.7421875 C-252.47407582 230.02475446 -247.71171522 229.9522802 -240.82421875 230.05078125 C-231.72552049 230.72888223 -223.98594552 234.81877063 -216 238.9375 C-215.2663623 239.31438965 -214.53272461 239.6912793 -213.77685547 240.07958984 C-210.02296002 242.08398713 -206.60873883 244.07314676 -203.28404236 246.75941467 C-192.4895412 255.37339858 -183.1070989 255.64844136 -169.6796875 255.33203125 C-167.62803706 255.32310112 -165.57635828 255.31934533 -163.52468872 255.32048035 C-158.16972876 255.313023 -152.8170346 255.25048402 -147.46270752 255.17126465 C-138.86066523 255.04975465 -130.25854704 254.99694204 -121.65573502 254.975317 C-118.66086356 254.95729409 -115.66793635 254.90545436 -112.67355347 254.85005188 C-110.84211035 254.83615063 -109.0106586 254.82333023 -107.17919922 254.81176758 C-106.35112259 254.78743149 -105.52304596 254.7630954 -104.6698761 254.73802185 C-100.41180591 254.74265799 -98.79153676 254.94618048 -95.29348755 257.62113953 C-93.3125 260.3125 -93.3125 260.3125 -92.75 263.875 C-93.3125 267.3125 -93.3125 267.3125 -94.75645447 269.49201965 C-98.61260535 272.23846795 -102.14275129 271.8950237 -106.77172852 271.87768555 C-108.20913643 271.89542778 -108.20913643 271.89542778 -109.67558289 271.91352844 C-112.84775633 271.94645736 -116.019073 271.94937221 -119.19140625 271.94921875 C-121.40136566 271.95953479 -123.6113217 271.97059803 -125.8212738 271.9823761 C-130.4591451 272.00182682 -135.09671481 272.00522493 -139.73461914 271.9987793 C-145.65743318 271.99280085 -151.57867026 272.03690272 -157.50116062 272.09466839 C-162.06965604 272.13178483 -166.63777644 272.13656118 -171.20640373 272.13239479 C-173.38835926 272.13525595 -175.57033123 272.14924464 -177.75213814 272.17487144 C-199.20242137 272.40022102 -199.20242137 272.40022102 -208.3125 264.3125 C-209.50207316 263.49045187 -210.70410828 262.68592406 -211.921875 261.90625 C-212.95828125 261.2153125 -213.9946875 260.524375 -215.0625 259.8125 C-223.59387141 254.25272987 -233.08652074 248.55957064 -243.3125 247.3125 C-241.7239658 251.60154235 -238.88122632 253.63595526 -235.3125 256.3125 C-234.6525 256.3125 -233.9925 256.3125 -233.3125 256.3125 C-230.88377092 264.33254782 -230.88377092 264.33254782 -232.625 268.3125 C-233.49078994 269.33862141 -234.36315355 270.36315355 -235.3125 271.3125 C-238.41335221 271.47291193 -241.49437579 271.57213402 -244.59765625 271.62890625 C-245.99388466 271.6600779 -245.99388466 271.6600779 -247.4183197 271.69187927 C-250.40380182 271.75747931 -253.38937484 271.81630802 -256.375 271.875 C-258.39388976 271.9181753 -260.4127702 271.96178925 -262.43164062 272.00585938 C-267.39183297 272.11317129 -272.35211709 272.21440888 -277.3125 272.3125 C-279.3460607 285.25985834 -277.14994708 299.8254672 -269.4375 310.6875 C-263.33978939 318.10158982 -256.8008678 322.48678026 -247.06298828 323.56054688 C-233.40144606 324.52380872 -219.24049522 323.11058812 -206.76611042 317.08185863 C-198.52003184 313.14997611 -191.34250656 312.64614653 -182.3269043 312.81176758 C-180.86181691 312.81970698 -179.39671506 312.82527294 -177.93161011 312.82867432 C-174.80000833 312.84012813 -171.66902632 312.86646081 -168.5376339 312.90430641 C-163.57157244 312.96255603 -158.60596619 312.97650161 -153.63960266 312.983078 C-139.52568286 313.00836552 -125.41242542 313.09189688 -111.29907227 313.21948242 C-103.4858575 313.28972464 -95.6732962 313.32342875 -87.85975963 313.31906623 C-83.73774496 313.3185667 -79.61779384 313.33702635 -75.49625206 313.40217018 C-51.47084457 314.09992443 -51.47084457 314.09992443 -31.3125 302.3125 C-29.43214753 301.16299911 -27.52222678 300.05843937 -25.5703125 299.03515625 C-24.71179688 298.58462891 -23.85328125 298.13410156 -22.96875 297.66992188 C-22.1334375 297.24259766 -21.298125 296.81527344 -20.4375 296.375 C-19.14972656 295.6934082 -19.14972656 295.6934082 -17.8359375 294.99804688 C-8.29251138 290.04558711 2.08768626 285.85081549 13.0546875 287.71484375 C18.13392295 289.33444901 20.69801343 291.9641559 23.6875 296.3125 C24.61999614 299.10998841 24.82226152 300.85570881 24.8125 303.75 C24.81507813 304.51183594 24.81765625 305.27367187 24.8203125 306.05859375 C24.68999721 308.27012096 24.25210543 310.17770835 23.6875 312.3125 C24.54504883 312.3218457 25.40259766 312.33119141 26.28613281 312.34082031 C29.47722679 312.38491291 32.66736756 312.44656056 35.85791016 312.52001953 C37.23701651 312.54819099 38.61628318 312.56942472 39.99560547 312.58349609 C41.98172949 312.60497545 43.96749909 312.65373132 45.953125 312.703125 C47.14711914 312.72407227 48.34111328 312.74501953 49.57128906 312.76660156 C52.6875 313.3125 52.6875 313.3125 55.07299805 314.72363281 C57.59469527 318.76719509 57.27837245 322.66789988 57.25390625 327.34375 C57.26010483 328.33064819 57.26630341 329.31754639 57.27268982 330.33435059 C57.27979305 332.42568985 57.27660524 334.5170856 57.26391602 336.60839844 C57.25016773 339.77388034 57.28397261 342.93633567 57.32226562 346.1015625 C57.38007453 361.16078148 55.76202382 373.11284032 44.6875 384.3125 C28.42591932 398.32593588 10.35887793 399.61874821 -10.3125 398.3125 C-17.68268191 397.46616332 -24.83009436 395.80705567 -31.65513611 392.87792969 C-41.87941241 388.514869 -50.59537518 387.49290553 -61.625 387.7265625 C-63.21637345 387.73779342 -64.80776805 387.7463151 -66.39916992 387.75228882 C-70.52925865 387.77488207 -74.65802222 387.83353682 -78.78759766 387.9005127 C-83.02488288 387.9625847 -87.26238837 387.98944037 -91.5 388.01953125 C-99.77143239 388.08332028 -108.04180006 388.18532501 -116.3125 388.3125 C-118.6250766 401.7551499 -119.88488444 418.00294819 -111.69921875 429.59765625 C-106.016632 436.54024006 -99.2723929 441.00610571 -90.3125 442.3125 C-79.7679604 442.02786212 -71.26841067 438.51554128 -63.0625 432.0625 C-59.84430609 429.55658241 -57.53074801 428.21876116 -53.3125 428.3125 C-50.5625 429.25 -50.5625 429.25 -48.3125 431.3125 C-46.85395982 436.21018103 -46.00467293 441.05465146 -45.32519531 446.11132812 C-43.21128361 461.63873962 -38.16032762 476.74366002 -26.38671875 487.75 C-15.49479988 495.9548353 -3.6584424 498.4087588 9.63671875 497 C22.32039165 495.1810866 32.93126943 490.66819263 41 480.375 C48.69855263 469.27377217 51.73257063 456.88145227 51.86328125 443.42578125 C51.88712891 442.15798828 51.91097656 440.89019531 51.93554688 439.58398438 C51.97870369 436.93310981 52.00985075 434.2820139 52.02929688 431.63085938 C52.07086914 429.7349707 52.07086914 429.7349707 52.11328125 427.80078125 C52.12786377 426.65134033 52.14244629 425.50189941 52.1574707 424.31762695 C52.79746082 420.68905099 53.7651833 419.49809821 56.6875 417.3125 C60.125 416.75 60.125 416.75 63.6875 417.3125 C67.02858987 419.92023918 68.51732056 421.39491635 69.29931641 425.61132812 C69.29593262 426.84302734 69.29254883 428.07472656 69.2890625 429.34375 C69.29706879 430.01611694 69.30507507 430.68848389 69.31332397 431.38122559 C69.33629544 433.52560084 69.32700895 435.66807652 69.3125 437.8125 C69.28038033 455.26151049 71.04634498 471.49690993 83.5625 484.8125 C91.88691162 492.43118116 102.46107754 496.62002908 113.6875 497.3125 C114.46996094 497.36535156 115.25242187 497.41820312 116.05859375 497.47265625 C126.97852278 497.86447898 136.95842141 494.19829995 145.26171875 487.1171875 C155.61172641 477.24677661 163.44166873 463.34759 166.6875 449.3125 C166.04941406 448.81878906 165.41132812 448.32507813 164.75390625 447.81640625 C163.92761719 447.17574219 163.10132813 446.53507812 162.25 445.875 C161.42628906 445.23691406 160.60257813 444.59882812 159.75390625 443.94140625 C157.6875 442.3125 157.6875 442.3125 156.6875 441.3125 C156.484375 439.3515625 156.484375 439.3515625 156.4375 436.9375 C156.41171875 436.14601563 156.3859375 435.35453125 156.359375 434.5390625 C156.6875 432.3125 156.6875 432.3125 157.765625 430.5859375 C160.8021243 428.57394813 163.05336519 428.36115474 166.6875 428.3125 C169.47372944 429.36669007 171.87324837 430.89711431 174.375 432.5 C187.31446383 440.22968201 200.32416379 444.28280459 215.5 441.1875 C227.56087695 437.95952807 235.7285396 431.7383707 242.1484375 421.1328125 C247.94117266 410.51769884 249.07691213 398.23729951 248.6875 386.3125 C246.82544922 386.50779297 246.82544922 386.50779297 244.92578125 386.70703125 C243.28397386 386.8477576 241.64203904 386.98700289 240 387.125 C238.77506836 387.25938477 238.77506836 387.25938477 237.52539062 387.39648438 C233.08199842 387.73828378 231.33741459 387.79576982 227.640625 385.046875 C225.1061393 381.49859502 224.98834068 379.58514029 225.6875 375.3125 C227.74501687 372.68952238 229.02180559 371.47992615 232.28125 370.66015625 C233.71984375 370.51900391 233.71984375 370.51900391 235.1875 370.375 C250.3580692 368.23414109 262.82673764 359.80095058 272.6875 348.3125 C280.20948523 338.27760211 283.69380583 327.16454511 282.29296875 314.66796875 C280.68659516 305.76554995 277.26040109 298.3988837 271.6875 291.3125 C270.96175781 290.28640625 270.23601563 289.2603125 269.48828125 288.203125 C266.82257438 284.77104059 264.50269129 282.4907234 260.6875 280.3125 C255.28911338 279.82428699 250.01182949 281.49821778 244.82763672 282.83203125 C239.61168948 284.00303104 233.53143637 284.34665868 228.453125 282.5 C226.6875 281.3125 226.6875 281.3125 225.3125 278 C224.64369654 274.05405959 224.41723234 272.58168543 226.6875 269.3125 C231.71116273 266.74033387 236.1896969 265.81676399 241.8125 265.375 C258.64745005 263.68455294 272.9426727 257.75819403 284.6875 245.3125 C292.17301928 235.94213774 294.50452123 224.06852772 293.6875 212.3125 C292.04326937 198.69882778 288.45962579 187.94075601 278.18359375 178.25390625 C269.2975513 171.3425399 258.45555914 169.07347765 247.47265625 168.36523438 C243.67571647 167.99860826 241.73670713 167.35065801 238.6953125 164.9921875 C236.6875 162.3125 236.6875 162.3125 236.3125 160.27734375 C236.498125 159.27380859 236.498125 159.27380859 236.6875 158.25 C236.88859375 157.09177734 236.88859375 157.09177734 237.09375 155.91015625 C237.99805574 151.95381865 238.97254902 148.01899329 239.98828125 144.08984375 C243.40268232 130.52761378 242.59842707 114.70921946 235.6875 102.3125 C228.25021243 92.23183914 218.23937444 84.42610958 205.6875 82.3125 C192.42600299 81.1384052 181.07685093 85.08250436 170.6875 93.3125 C161.53893508 101.4285236 153.69693998 110.31426328 146.6875 120.3125 C145.10827594 121.89172406 143.49306126 121.520159 141.3125 121.5625 C140.52101563 121.58828125 139.72953125 121.6140625 138.9140625 121.640625 C136.6875 121.3125 136.6875 121.3125 134.94921875 120.03515625 C133.10838263 117.52181653 132.8488812 115.14565677 132.97265625 112.0859375 C136.39338515 98.81425706 151.91049038 84.78226532 163.125 77.8125 C165.29738601 76.37418952 165.29738601 76.37418952 166.6875 74.3125 C167.34660098 69.45087442 166.64611216 65.0950266 165.6875 60.3125 C165.51476562 59.36890625 165.34203125 58.4253125 165.1640625 57.453125 C162.67046932 46.50722246 157.07159396 34.29402786 148.109375 27.30078125 C136.6346813 20.10393389 124.62755801 16.44429907 110.98828125 18.7734375 C96.51987718 22.28218029 85.65709818 30.49018974 77.8125 43.125 C72.52986265 52.78076403 69.61627179 63.34064261 69.51391602 74.34619141 C69.49368126 76.09798203 69.49368126 76.09798203 69.47303772 77.88516235 C69.46259933 79.1321994 69.45216095 80.37923645 69.44140625 81.6640625 C69.41690466 83.63728302 69.39239184 85.61050349 69.36720943 87.58371544 C69.30660319 92.43332938 69.25561576 97.28302968 69.21069336 102.1328125 C69.18504315 104.86144861 69.1542367 107.58993626 69.11790466 110.31845093 C69.0840873 112.88478305 69.05816974 115.45123383 69.04090881 118.01773071 C69.02426682 119.1792868 69.00762482 120.3408429 68.99047852 121.53759766 C68.98017105 122.55874664 68.96986359 123.57989563 68.95924377 124.63198853 C68.680927 127.37733685 68.18662861 129.01226313 66.6875 131.3125 C63.75313867 133.02421078 61.96711498 133.3236846 58.5625 133.1875 C55.14207399 132.14650078 54.4838398 131.33395867 52.6875 128.3125 C52.30223083 125.92033386 52.30223083 125.92033386 52.28686523 123.23120117 C52.27352646 122.21881882 52.26018768 121.20643646 52.2464447 120.16337585 C52.24627098 118.52596184 52.24627098 118.52596184 52.24609375 116.85546875 C52.22628197 115.15273552 52.22628197 115.15273552 52.20606995 113.41560364 C52.16515574 109.77704509 52.14353428 106.13873632 52.125 102.5 C52.56887403 65.09020071 52.56887403 65.09020071 35.4375 32.84375 C24.74958494 22.5669086 12.5482004 17.90111997 -2.10522461 17.94360352 C-16.38875563 18.35265072 -29.28243359 24.6689412 -38.45703125 35.640625 Z " fill="#FFFFFF" transform="translate(485.3125,137.6875)"/>
<path d="M0 0 C3.41977536 1.18948708 4.8575392 1.9738088 6.875 5 C7.73447575 11.44606813 6.27134425 15.56161699 2.875 21 C2.23884766 22.02480469 2.23884766 22.02480469 1.58984375 23.0703125 C-3.44031732 30.44040922 -11.28688572 36.16881536 -20.125 38 C-33.03637707 39.37608098 -44.73358708 35.76250965 -55.125 28 C-57.24390181 24.82164728 -57.6684002 22.80520785 -57.5703125 19.0078125 C-57.125 17 -57.125 17 -54.5 14 C-50.7479244 11.77654779 -49.37936904 11.58352521 -45.125 12 C-42.23046875 13.27734375 -42.23046875 13.27734375 -39.3125 14.9375 C-33.49135197 17.96679953 -28.47206287 20.26305035 -21.93359375 18.36328125 C-16.06963951 15.80387581 -13.67475665 11.95862633 -10.75 6.375 C-7.96226939 2.30062449 -5.01910795 0 0 0 Z " fill="#FFFFFF" transform="translate(386.125,326)"/>
<path d="M0 0 C3 1.75 3 1.75 6 4 C11.60548093 7.84689868 15.09551471 9.56594142 22 9 C26.34977635 7.42758576 29.9849129 5.06425236 33.625 2.25 C36.05999102 0.45696116 37.01659354 -0.00265497 40.125 -0.5 C43.37795981 0.06573214 45.35816485 1.03749389 48 3 C49.6141 6.22820001 49.58071857 9.50893606 49 13 C47 15.625 47 15.625 44 18 C43.43023438 18.49371094 42.86046875 18.98742187 42.2734375 19.49609375 C34.24241099 26.12251686 25.57612037 28.7599049 15.203125 28.37890625 C5.8540906 27.27298389 -1.09505047 23.23496433 -8 17 C-8.73347656 16.3503125 -9.46695313 15.700625 -10.22265625 15.03125 C-12.68466529 12.21752538 -12.57255644 10.49856963 -12.3984375 6.90234375 C-11.79104423 4.00233861 -10.33500208 2.71691329 -8 1 C-5.13391871 -0.43304064 -3.18699217 -0.30644155 0 0 Z " fill="#FFFFFF" transform="translate(598,359)"/>
<path d="M0 0 C2.12419888 3.23247656 2.51638441 6.35371757 2.4375 10.1875 C1.35179716 13.62555898 0.54362788 14.11674808 -2.5625 16.1875 C-9.55265219 16.87505595 -9.55265219 16.87505595 -13.5 14.1875 C-17.52126326 11.56136889 -20.86885551 11.45358468 -25.5625 12.1875 C-27.75950221 12.80943358 -27.75950221 12.80943358 -29.5625 14.1875 C-30.72652841 16.44877909 -30.72652841 16.44877909 -31.5 19.0625 C-33.11316713 23.36635515 -34.22568918 26.11765847 -38.5625 28.1875 C-42.90233715 28.58596808 -45.69074243 27.90669999 -49.0625 25.125 C-51.00925873 21.31259749 -51.39499744 18.3212804 -50.5625 14.1875 C-47.09546403 4.86628853 -41.45167928 -1.39202206 -32.5625 -5.8125 C-20.81291448 -10.18895112 -9.90127499 -7.00334085 0 0 Z " fill="#FFFFFF" transform="translate(425.5625,281.8125)"/>
<path d="M0 0 C8.37700003 5.26414593 8.37700003 5.26414593 10.1328125 10.82421875 C9.99348413 14.65574896 9.38346013 16.29215921 7.0078125 19.26171875 C3.2704269 21.75330915 1.43449667 21.7196516 -2.9921875 21.26171875 C-3.7759375 20.62234375 -4.5596875 19.98296875 -5.3671875 19.32421875 C-9.03591263 16.441649 -12.36441783 15.81202382 -16.9921875 16.26171875 C-22.24112432 19.23281507 -24.00864214 22.73009818 -26.1328125 28.2734375 C-26.9921875 30.26171875 -26.9921875 30.26171875 -28.9921875 32.26171875 C-33.16249369 33.38449349 -35.33556685 33.52923087 -39.3671875 31.88671875 C-42.49924167 28.75466458 -43.03407665 27.02412706 -43.21875 22.69140625 C-42.47766643 14.74392387 -37.57820892 8.6286805 -31.9921875 3.26171875 C-22.8192745 -3.85196888 -10.44462642 -5.49210061 0 0 Z " fill="#FFFFFF" transform="translate(313.9921875,311.73828125)"/>
<path d="M0 0 C5.31913152 4.00744092 9.03928948 8.39051662 10.80078125 14.88671875 C11.12381098 18.31336748 9.98586891 20.28597915 8 23 C4.2626144 25.4915904 2.42668417 25.45793285 -2 25 C-4.875 23.25 -4.875 23.25 -7 21 C-7.144375 20.29875 -7.28875 19.5975 -7.4375 18.875 C-7.623125 18.25625 -7.80875 17.6375 -8 17 C-12.55398992 14.72300504 -16.1641046 14.47287514 -21 16 C-23.05352708 17.93713283 -24.78351867 19.96286145 -26.51953125 22.1875 C-28.70893059 24.86792558 -29.8170427 24.97928785 -33.3125 25.375 C-37 25 -37 25 -39.9375 23 C-42.06251509 19.90906896 -42.7998131 17.88824127 -42.55078125 14.1171875 C-40.89535195 7.75376425 -35.22830576 2.58805298 -30 -1 C-20.22135852 -5.75510409 -9.38961805 -5.51873246 0 0 Z " fill="#FFFFFF" transform="translate(579,317)"/>
<path d="M0 0 C6.47936726 3.54684505 11.48351336 8.8388565 14.18359375 15.7578125 C14.18359375 19.21210235 12.98986619 21.29237465 11.18359375 24.1953125 C7.44620815 26.6869029 5.61027792 26.65324535 1.18359375 26.1953125 C-2.64954014 23.731155 -5.60269695 20.4090218 -8.81640625 17.1953125 C-11.6750325 15.76599938 -13.65061498 15.85274553 -16.81640625 16.1953125 C-19.1787234 18.08551509 -19.1787234 18.08551509 -21.06640625 20.6328125 C-25.43159588 26.03854151 -25.43159588 26.03854151 -30.12890625 26.5703125 C-33.81640625 26.1953125 -33.81640625 26.1953125 -36.75390625 24.1953125 C-38.92740818 21.03385515 -39.49807678 19.01888812 -39.23828125 15.1796875 C-37.9379565 9.06334514 -32.71220057 4.13650796 -27.6953125 0.7734375 C-18.56357489 -4.42800024 -9.49692209 -4.34579155 0 0 Z " fill="#FFFFFF" transform="translate(679.81640625,315.8046875)"/>
</svg>
