<?xml version="1.0" encoding="UTF-8"?>
<svg version="1.1" xmlns="http://www.w3.org/2000/svg" width="810" height="810">
<path d="M0 0 C154.44 0 308.88 0 468 0 C468 36.63 468 73.26 468 111 C461.4 111 454.8 111 448 111 C448 80.97 448 50.94 448 20 C307.09 20 166.18 20 21 20 C21 53.33 21 86.66 21 121 C32.88 121 44.76 121 57 121 C57 127.6 57 134.2 57 141 C45.12 141 33.24 141 21 141 C21 183.24 21 225.48 21 269 C32.88 269 44.76 269 57 269 C57 275.6 57 282.2 57 289 C45.12 289 33.24 289 21 289 C21 330.91 21 372.82 21 416 C32.88 416 44.76 416 57 416 C57 422.6 57 429.2 57 436 C45.12 436 33.24 436 21 436 C21 487.15 21 538.3 21 591 C161.91 591 302.82 591 448 591 C448 517.41 448 443.82 448 368 C454.6 368 461.2 368 468 368 C468 448.19 468 528.38 468 611 C350.84639349 611.04033135 350.84639349 611.04033135 302.04492188 611.04882812 C291.58463092 611.05065868 281.12433997 611.05253581 270.66404904 611.05452599 C269.24513575 611.05479583 267.82622246 611.0550642 266.40730917 611.05533109 C243.76684062 611.05960174 221.12637456 611.06710836 198.48590751 611.07629722 C174.56809792 611.08598692 150.65029008 611.0919936 126.73247856 611.09408849 C112.39576446 611.09546407 98.05905749 611.09981649 83.72234558 611.10791647 C73.90563255 611.1131819 64.08892323 611.11480476 54.27220888 611.11350138 C48.59930864 611.11285768 42.92642091 611.11387909 37.25352287 611.11920547 C32.06919571 611.12403789 26.8848896 611.1243397 21.70056152 611.12089889 C19.81630273 611.12047304 17.93204268 611.1217701 16.04778642 611.12488318 C13.50395113 611.12884457 10.96019376 611.12676502 8.4163599 611.12304783 C7.66975759 611.12567484 6.92315529 611.12830186 6.15392867 611.13100848 C1.1141458 611.1141458 1.1141458 611.1141458 0 610 C-0.09514592 607.29161914 -0.12554932 604.60881487 -0.11352539 601.90014648 C-0.11367142 601.05143982 -0.11381744 600.20273315 -0.1139679 599.32830811 C-0.11326848 596.50921109 -0.10547478 593.69017929 -0.09765625 590.87109375 C-0.09579217 588.92196183 -0.09436822 586.97282945 -0.09336853 585.0236969 C-0.08954255 579.88293168 -0.07971159 574.74219453 -0.06866455 569.60144043 C-0.05845215 564.35994852 -0.05387128 559.1184521 -0.04882812 553.87695312 C-0.03808939 543.58462306 -0.02101201 533.29231386 0 523 C-1.25772217 522.85377197 -2.51544434 522.70754395 -3.8112793 522.55688477 C-16.2007943 521.11642805 -27.44297759 513.54550397 -35.375 504.1875 C-44.15431697 492.39197598 -48.61132935 477.52608559 -46.56640625 462.8984375 C-44.06011426 448.85697555 -38.00792746 435.69922902 -26.36328125 427.0390625 C-17.43919788 421.13945927 -10.7354831 418.19283146 0 417 C-0.33 403.47 -0.66 389.94 -1 376 C-6.94 374.515 -6.94 374.515 -13 373 C-26.29673157 367.44315695 -36.64999991 357.27271819 -42.74609375 344.25 C-48.49457526 329.35050899 -48.25744957 315.25616296 -42.62890625 300.375 C-36.52866496 287.03346509 -26.56358431 277.17569194 -12.84765625 271.75390625 C-8.3598282 270.18180648 -4.78596707 269 0 269 C0 255.47 0 241.94 0 228 C-3.3 227.34 -6.6 226.68 -10 226 C-17.49484053 223.83071145 -23.17365958 220.11846728 -29 215 C-29.61746094 214.47664062 -30.23492187 213.95328125 -30.87109375 213.4140625 C-41.76668402 203.4648598 -46.24424114 189.76956379 -47.25 175.4375 C-46.93062982 160.36903427 -40.90719247 145.98238172 -30.4453125 135.18359375 C-21.89845103 127.55149221 -12.16241228 123.23248246 -1 121 C-0.67 81.07 -0.34 41.14 0 0 Z M-15.8125 149.4375 C-16.534375 150.283125 -17.25625 151.12875 -18 152 C-18.86625 152.928125 -19.7325 153.85625 -20.625 154.8125 C-25.83959474 161.81103504 -27.52784651 169.83859163 -26.78515625 178.5078125 C-25.16512612 188.35142414 -21.120034 195.93145428 -13.41796875 202.3046875 C-9.5410969 205.02288198 -4.86941207 208 0 208 C0 186.22 0 164.44 0 142 C-5.90633274 142 -11.44868663 145.65552841 -15.8125 149.4375 Z M-18.17578125 298.96875 C-24.47970614 305.98810962 -26.5563349 314.75128909 -27 324 C-26.38670768 332.87396441 -22.71185858 341.97070331 -16 348 C-10.59751995 351.8640854 -6.65484638 353.89085894 0 355 C0 333.55 0 312.1 0 290 C-7.2979556 290 -12.93237294 294.10649318 -18.17578125 298.96875 Z M-17.3125 445.625 C-24.20335995 453.05987521 -27.23411998 461.93284073 -27 472 C-26.30389585 481.51342338 -22.1310083 489.37498924 -15.1875 495.875 C-11.04804406 499.24877623 -5.5209547 503 0 503 C0 481.22 0 459.44 0 437 C-6.56323975 437 -12.62100625 441.29027383 -17.3125 445.625 Z " fill="#FFFFFF" transform="translate(134,90)"/>
<path d="M0 0 C1.56594794 1.36853712 3.10692093 2.76604908 4.625 4.1875 C5.54925781 5.02152344 6.47351563 5.85554688 7.42578125 6.71484375 C19.00264496 17.63375309 27.23155444 32.00243705 27.828125 48.2265625 C27.97739441 56.95834737 27.86618888 64.9456197 24.625 73.1875 C24.31949219 74.00089844 24.01398438 74.81429687 23.69921875 75.65234375 C21.45480667 80.81857229 18.44646577 84.69467266 14.62032795 88.81230068 C14.13553615 89.3344102 13.65074435 89.85651973 13.15126188 90.39445075 C8.11286819 95.79120918 2.92263633 101.03555884 -2.30024719 106.25318909 C-3.3533684 107.30890304 -4.40627793 108.3648282 -5.45899743 109.42094272 C-8.31634581 112.28625575 -11.17672575 115.14852461 -14.03768694 118.01022971 C-17.13618995 121.11060156 -20.2318465 124.21381359 -23.32792664 127.31660461 C-30.07677952 134.07895891 -36.82933575 140.83760687 -43.58273339 147.59542203 C-47.80210319 151.81756418 -52.02073924 156.04043894 -56.23924828 160.26344109 C-67.93106882 171.96743597 -79.62382217 183.67049716 -91.32003498 195.37010288 C-92.06641254 196.11670001 -92.81279009 196.86329713 -93.58178515 197.63251841 C-94.32986009 198.38081162 -95.07793502 199.12910483 -95.84867889 199.90007359 C-97.36437146 201.41620962 -98.88006248 202.9323472 -100.39575195 204.44848633 C-101.14757373 205.20052953 -101.8993955 205.95257273 -102.67399975 206.72740512 C-114.88352556 218.94088767 -127.0862705 231.16112142 -139.28614745 243.38424135 C-151.82629765 255.94808942 -164.37205081 268.50631959 -176.92347211 281.05890793 C-183.96502557 288.10137821 -191.00414019 295.14624847 -198.03707314 302.19732857 C-204.01766482 308.19329898 -210.00334277 314.18413222 -215.99576388 320.1682812 C-219.05247857 323.22108361 -222.10670366 326.27627303 -225.15445328 329.33802795 C-227.94389827 332.14017437 -230.74016737 334.93531656 -233.5420455 337.72502946 C-234.55453422 338.73555488 -235.56449066 339.74862518 -236.57164196 340.76447029 C-237.94102638 342.14492475 -239.32059683 343.51525245 -240.70062733 344.88506413 C-241.46397792 345.6490118 -242.22732851 346.41295948 -243.01381093 347.20005709 C-246.77220516 350.36354538 -250.87745824 352.28543955 -255.6559906 353.34791565 C-256.4534671 353.52899368 -257.2509436 353.71007172 -258.07258606 353.89663696 C-258.92833725 354.08229218 -259.78408844 354.26794739 -260.66577148 354.45922852 C-261.5819928 354.66437576 -262.49821411 354.86952301 -263.44219971 355.08088684 C-266.45808911 355.75256729 -269.47662544 356.41101199 -272.49609375 357.06640625 C-273.52994768 357.29179518 -274.56380161 357.5171841 -275.62898445 357.749403 C-281.09433502 358.93922057 -286.56196937 360.11785961 -292.03149414 361.28833008 C-297.67849935 362.49939149 -303.31559332 363.75144862 -308.95156765 365.01269627 C-313.29175485 365.97574075 -317.63831355 366.90705678 -321.98719978 367.82993889 C-324.0690163 368.27764912 -326.14826376 368.73748422 -328.2246685 369.20965767 C-331.12864745 369.86708413 -334.03884754 370.4787593 -336.95483398 371.08032227 C-337.80856094 371.28419556 -338.6622879 371.48806885 -339.54188538 371.69812012 C-345.30189465 372.81874407 -345.30189465 372.81874407 -348.40745735 370.99192619 C-350.18125435 369.47468219 -351.76519742 367.87493997 -353.375 366.1875 C-354.86 365.1046875 -354.86 365.1046875 -356.375 364 C-359.54905224 359.53648903 -358.16936993 355.44091623 -357.375 350.1875 C-356.22286874 343.75481769 -354.82362168 337.3715046 -353.4453125 330.984375 C-353.05000618 329.1336417 -352.6550642 327.28283054 -352.26046753 325.4319458 C-351.43587088 321.57154341 -350.60656989 317.71218998 -349.77392578 313.85351562 C-348.70995137 308.92072874 -347.65835352 303.98539822 -346.61030769 299.04920578 C-345.79872629 295.233884 -344.9803527 291.42004342 -344.15996933 287.60660553 C-343.76951937 285.78748634 -343.38121639 283.9679049 -342.99515152 282.14785004 C-342.45437612 279.60320312 -341.90439681 277.06071159 -341.35205078 274.51855469 C-341.19609436 273.77554108 -341.04013794 273.03252747 -340.87945557 272.26699829 C-337.81800185 258.35313621 -328.79860505 250.46109865 -319.01583862 240.6811676 C-317.97528346 239.6373065 -316.93493919 238.59323515 -315.894786 237.5489735 C-313.05334135 234.69758459 -310.20881992 231.84928299 -307.36373186 229.00153005 C-304.2888979 225.92277064 -301.21689344 222.8411899 -298.14445496 219.76004028 C-290.73499259 212.3308819 -283.32074364 204.9065095 -275.90588254 197.48274007 C-272.40862346 193.98108896 -268.91185085 190.47895213 -265.41501236 186.97688103 C-253.78282734 175.32769462 -242.14938903 163.67976196 -230.51232719 152.03544712 C-227.49746645 149.01867671 -224.48261106 146.00190095 -221.46777344 142.98510742 C-220.71851645 142.23536669 -219.96925946 141.48562596 -219.19729771 140.71316581 C-207.0587414 128.56630818 -194.92873083 116.41095404 -182.80226956 104.25202287 C-170.33528545 91.75193092 -157.86074865 79.25941666 -145.37879574 66.77427143 C-138.37755273 59.77086735 -131.37961023 52.76423468 -124.39010239 45.7491169 C-118.43858559 39.77584265 -112.48022226 33.80950437 -106.51296835 27.85194964 C-103.47236656 24.81587718 -100.43501726 21.77673656 -97.40644264 18.72866249 C-94.6267058 15.93118425 -91.83765907 13.14333321 -89.04132809 10.36244523 C-88.03849915 9.36197572 -87.03894809 8.35820571 -86.04330061 7.3505891 C-77.18408609 -1.60837801 -67.02616517 -11.02716117 -54.375 -13.8125 C-53.446875 -14.039375 -52.51875 -14.26625 -51.5625 -14.5 C-33.00712442 -16.31915447 -14.84182059 -11.44940446 0 0 Z M-67.375 18.1875 C-68.035 18.84057129 -68.695 19.49364258 -69.375 20.16650391 C-74.06894353 24.81329845 -78.73278703 29.48905448 -83.375 34.1875 C-81.75876737 38.24352714 -78.87347324 40.95705528 -75.82373047 43.96582031 C-74.97473175 44.81525711 -74.97473175 44.81525711 -74.10858154 45.68185425 C-72.2411528 47.54789238 -70.36674538 49.40675096 -68.4921875 51.265625 C-67.19423589 52.55984554 -65.89672584 53.85450905 -64.59963989 55.14959717 C-61.18785164 58.55375646 -57.77009948 61.95186634 -54.35107422 65.34875488 C-50.8619408 68.81741407 -47.37847613 72.29175583 -43.89453125 75.765625 C-37.06022632 82.57849302 -30.21960797 89.3849842 -23.375 96.1875 C-18.09905561 93.69962034 -14.47857709 89.70046956 -10.37573242 85.61376953 C-8.95773771 84.20756938 -7.52095192 82.82040021 -6.08398438 81.43359375 C1.88221488 73.52923514 7.61160265 65.60808384 7.875 54.0625 C7.67497361 40.66073205 1.41054151 29.23392194 -7.6328125 19.734375 C-17.77470444 10.31484004 -30.37983784 4.72033744 -44.21875 4.921875 C-54.26272203 5.76715977 -60.49997823 11.31885975 -67.375 18.1875 Z M-100.88720703 51.47265625 C-101.75128174 52.35244141 -101.75128174 52.35244141 -102.6328125 53.25 C-103.25800781 53.88164062 -103.88320313 54.51328125 -104.52734375 55.1640625 C-105.50380859 56.16566406 -105.50380859 56.16566406 -106.5 57.1875 C-107.48806641 58.18910156 -107.48806641 58.18910156 -108.49609375 59.2109375 C-110.12694761 60.86542692 -111.75210268 62.52521615 -113.375 64.1875 C-107.63411114 71.21055029 -101.17806544 77.5109361 -94.7578125 83.90234375 C-93.53305511 85.12523316 -92.30852047 86.3483457 -91.084198 87.57167053 C-87.88071366 90.77135956 -84.67423634 93.96803248 -81.46710205 97.1640625 C-78.18717384 100.433712 -74.91011874 103.7062384 -71.6328125 106.97851562 C-65.21633235 113.38431119 -58.796683 119.78692049 -52.375 126.1875 C-51.25825489 125.23707913 -50.14247511 124.28552392 -49.02709961 123.33349609 C-48.4056456 122.80372162 -47.78419159 122.27394714 -47.14390564 121.7281189 C-44.98055632 119.84396139 -42.94800987 117.85828197 -40.9375 115.8125 C-40.25816406 115.12414062 -39.57882812 114.43578125 -38.87890625 113.7265625 C-38.38261719 113.21867187 -37.88632812 112.71078125 -37.375 112.1875 C-38.99169215 108.14260614 -41.85953857 105.42107684 -44.89453125 102.40917969 C-45.45731781 101.84288849 -46.02010437 101.27659729 -46.59994507 100.69314575 C-48.45747044 98.82683298 -50.32219782 96.96791282 -52.1875 95.109375 C-53.48051762 93.81501025 -54.77323822 92.52034872 -56.06567383 91.22540283 C-58.77263755 88.51549222 -61.48318211 85.80922846 -64.19628906 83.10546875 C-67.68031153 79.63286329 -71.15524903 76.15132679 -74.62757874 72.66703415 C-77.29359914 69.9938029 -79.96434468 67.32533357 -82.63656616 64.65830231 C-83.92030841 63.37589752 -85.20255756 62.09199633 -86.48330688 60.80660248 C-88.26924516 59.01560928 -90.06142648 57.23111242 -91.85546875 55.44824219 C-92.38747894 54.91218353 -92.91948914 54.37612488 -93.46762085 53.82382202 C-96.81625186 49.97861455 -96.81625186 49.97861455 -100.88720703 51.47265625 Z M-129.69183594 80.38013744 C-130.25648007 80.94516129 -130.8211242 81.51018515 -131.40287876 82.09233093 C-132.3777327 83.0641983 -132.3777327 83.0641983 -133.37228066 84.05569935 C-134.45348597 85.14127392 -134.45348597 85.14127392 -135.55653381 86.2487793 C-136.31692898 87.00832004 -137.07732414 87.76786077 -137.86076158 88.5504179 C-140.43047729 91.11847499 -142.99658197 93.69011109 -145.56274414 96.26171875 C-147.39516599 98.09442242 -149.22780757 99.92690642 -151.06065369 101.75918579 C-155.01779713 105.71580373 -158.97309892 109.67425511 -162.92717171 113.63394165 C-168.64416897 119.3590503 -174.36391069 125.08141048 -180.08433586 130.80309379 C-189.36425089 140.08519991 -198.64192845 149.36953911 -207.91821289 158.65527344 C-216.93169286 167.67792605 -225.94621779 176.69953253 -234.9621582 185.71972656 C-235.51747666 186.27530774 -236.07279511 186.83088892 -236.6449414 187.40330589 C-239.43069083 190.19036032 -242.21646091 192.97739411 -245.00224125 195.76441765 C-268.12969584 218.90224662 -291.253525 242.04369564 -314.375 265.1875 C-313.42447729 266.3039222 -312.4728835 267.41943255 -311.52084351 268.53456116 C-310.99104071 269.15585938 -310.46123791 269.77715761 -309.91538048 270.41728306 C-307.98084709 272.64046352 -305.94270808 274.73260139 -303.8515625 276.80859375 C-303.05878906 277.59814453 -302.26601563 278.38769531 -301.44921875 279.20117188 C-300.23685547 280.4009668 -300.23685547 280.4009668 -299 281.625 C-298.16855469 282.45193359 -297.33710938 283.27886719 -296.48046875 284.13085938 C-294.4475896 286.15205531 -292.41240037 288.17086335 -290.375 290.1875 C-285.23588271 285.88635827 -280.42676834 281.37977216 -275.69972229 276.63247681 C-274.95870189 275.89231083 -274.21768149 275.15214486 -273.45420593 274.38954961 C-270.98605311 271.92303636 -268.52147785 269.45297998 -266.05688477 266.98291016 C-264.28269066 265.20843382 -262.50827602 263.43417796 -260.73365784 261.66012573 C-256.92082423 257.84751942 -253.10952268 254.03339202 -249.29962349 250.21785355 C-243.79123505 244.70131712 -238.28006749 239.18756395 -232.76823091 233.67447297 C-223.82440398 224.7284607 -214.88280969 215.78022038 -205.94262695 206.83056641 C-197.26118567 198.13993761 -188.57868839 189.45036605 -179.89477539 180.76220703 C-179.09104518 179.95808274 -179.09104518 179.95808274 -178.271078 179.13771351 C-175.58285685 176.44818726 -172.89461499 173.75868171 -170.20636284 171.06918645 C-147.92603121 148.77849832 -125.64936361 126.48415185 -103.375 104.1875 C-104.32591161 103.07112719 -105.27782186 101.95560496 -106.23014832 100.84043884 C-106.76013522 100.21914062 -107.29012213 99.59784239 -107.83616924 98.95771694 C-109.76338488 96.74071565 -111.7879846 94.64497072 -113.86328125 92.56640625 C-115.04567383 91.38208008 -115.04567383 91.38208008 -116.25195312 90.17382812 C-117.05568359 89.37396484 -117.85941406 88.57410156 -118.6875 87.75 C-119.51056641 86.92306641 -120.33363281 86.09613281 -121.18164062 85.24414062 C-121.96345703 84.46361328 -122.74527344 83.68308594 -123.55078125 82.87890625 C-124.26145752 82.16935791 -124.97213379 81.45980957 -125.7043457 80.72875977 C-127.7137845 78.7309103 -127.7137845 78.7309103 -129.69183594 80.38013744 Z M-90.69183594 119.38013744 C-91.25648007 119.94516129 -91.8211242 120.51018515 -92.40287876 121.09233093 C-93.3777327 122.0641983 -93.3777327 122.0641983 -94.37228066 123.05569935 C-95.45348597 124.14127392 -95.45348597 124.14127392 -96.55653381 125.2487793 C-97.31692898 126.00832004 -98.07732414 126.76786077 -98.86076158 127.5504179 C-101.43047729 130.11847499 -103.99658197 132.69011109 -106.56274414 135.26171875 C-108.39516599 137.09442242 -110.22780757 138.92690642 -112.06065369 140.75918579 C-116.01779713 144.71580373 -119.97309892 148.67425511 -123.92717171 152.63394165 C-129.64416897 158.3590503 -135.36391069 164.08141048 -141.08433586 169.80309379 C-150.36425089 179.08519991 -159.64192845 188.36953911 -168.91821289 197.65527344 C-177.93169286 206.67792605 -186.94621779 215.69953253 -195.9621582 224.71972656 C-196.51747666 225.27530774 -197.07279511 225.83088892 -197.6449414 226.40330589 C-200.43069083 229.19036032 -203.21646091 231.97739411 -206.00224125 234.76441765 C-229.12969584 257.90224662 -252.253525 281.04369564 -275.375 304.1875 C-274.42055267 305.30766253 -273.46515927 306.42701899 -272.5093689 307.54603577 C-271.97743612 308.16946397 -271.44550335 308.79289217 -270.8974514 309.43521214 C-269.10531302 311.4979002 -267.22896321 313.44709386 -265.2890625 315.37109375 C-264.23525391 316.42006836 -264.23525391 316.42006836 -263.16015625 317.49023438 C-262.44730469 318.19470703 -261.73445313 318.89917969 -261 319.625 C-260.26394531 320.35654297 -259.52789062 321.08808594 -258.76953125 321.84179688 C-256.97363926 323.62602723 -255.17544015 325.40786124 -253.375 327.1875 C-248.23588271 322.88635827 -243.42676834 318.37977216 -238.69972229 313.63247681 C-237.95870189 312.89231083 -237.21768149 312.15214486 -236.45420593 311.38954961 C-233.98605311 308.92303636 -231.52147785 306.45297998 -229.05688477 303.98291016 C-227.28269066 302.20843382 -225.50827602 300.43417796 -223.73365784 298.66012573 C-219.92082423 294.84751942 -216.10952268 291.03339202 -212.29962349 287.21785355 C-206.79123505 281.70131712 -201.28006749 276.18756395 -195.76823091 270.67447297 C-186.82440398 261.7284607 -177.88280969 252.78022038 -168.94262695 243.83056641 C-160.26118567 235.13993761 -151.57868839 226.45036605 -142.89477539 217.76220703 C-142.09104518 216.95808274 -142.09104518 216.95808274 -141.271078 216.13771351 C-138.58285685 213.44818726 -135.89461499 210.75868171 -133.20636284 208.06918645 C-110.92603121 185.77849832 -88.64936361 163.48415185 -66.375 141.1875 C-67.3298359 140.06738665 -68.28554594 138.94801843 -69.24162292 137.82896423 C-69.77373981 137.20553603 -70.30585669 136.58210783 -70.85409832 135.93978786 C-72.63890151 133.88344917 -74.50228714 131.93083035 -76.42578125 130.00390625 C-77.47282227 128.95493164 -77.47282227 128.95493164 -78.54101562 127.88476562 C-79.60352539 126.82805664 -79.60352539 126.82805664 -80.6875 125.75 C-81.41517578 125.01845703 -82.14285156 124.28691406 -82.89257812 123.53320312 C-83.92995117 122.49776367 -83.92995117 122.49776367 -84.98828125 121.44140625 C-85.92861206 120.50276733 -85.92861206 120.50276733 -86.88793945 119.54516602 C-88.79597934 117.75064102 -88.79597934 117.75064102 -90.69183594 119.38013744 Z M-322.375 286.1875 C-324.51846851 291.98111417 -325.70370865 297.9436752 -326.9765625 303.97265625 C-327.2178891 305.10650253 -327.4592157 306.24034882 -327.70785522 307.40855408 C-328.21554034 309.79941832 -328.72141191 312.19066828 -329.22558594 314.58227539 C-329.99826133 318.24176543 -330.78005045 321.89922959 -331.5625 325.55664062 C-332.05524206 327.88269509 -332.54744783 330.20886325 -333.0390625 332.53515625 C-333.27339996 333.62796402 -333.50773743 334.72077179 -333.74917603 335.84669495 C-333.96294891 336.86803024 -334.1767218 337.88936554 -334.39697266 338.94165039 C-334.58635406 339.83622452 -334.77573547 340.73079865 -334.97085571 341.65248108 C-335.37846495 344.2092341 -335.44772578 346.60319315 -335.375 349.1875 C-328.79528856 347.81886192 -322.21571471 346.44956385 -315.63623047 345.07983398 C-313.40383929 344.61516828 -311.1714181 344.15064669 -308.93896484 343.6862793 C-291.14671326 339.985463 -291.14671326 339.985463 -273.375 336.1875 C-274.903283 332.57717135 -277.04663661 330.26808234 -279.80883789 327.51074219 C-280.72641373 326.59008972 -281.64398956 325.66943726 -282.58937073 324.72088623 C-283.59195209 323.72520072 -284.59471831 322.72970133 -285.59765625 321.734375 C-286.62409817 320.70912553 -287.65017034 319.68350574 -288.67588806 318.65753174 C-290.82226796 316.51271355 -292.97195944 314.37129075 -295.12426758 312.23242188 C-297.88921121 309.48452123 -300.64747241 306.7300297 -303.40352726 303.97321701 C-305.51953383 301.85748162 -307.6381307 299.74435671 -309.75762749 297.63211823 C-310.77616006 296.61677657 -311.79408039 295.60082038 -312.81138802 294.5842514 C-314.22859359 293.16920187 -315.64947999 291.75784161 -317.07055664 290.34667969 C-317.87948868 289.54155945 -318.68842072 288.73643921 -319.52186584 287.90692139 C-321.07585199 286.07413915 -321.07585199 286.07413915 -322.375 286.1875 Z " fill="#FFFFFF" transform="translate(692.375,216.8125)"/>
<path d="M0 0 C86.13 0 172.26 0 261 0 C261 6.6 261 13.2 261 20 C174.87 20 88.74 20 0 20 C0 13.4 0 6.8 0 0 Z " fill="#FFFFFF" transform="translate(238,211)"/>
<path d="M0 0 C76.23 0 152.46 0 231 0 C231 6.6 231 13.2 231 20 C154.77 20 78.54 20 0 20 C0 13.4 0 6.8 0 0 Z " fill="#FFFFFF" transform="translate(238,285)"/>
<path d="M0 0 C54.45 0 108.9 0 165 0 C165 6.6 165 13.2 165 20 C110.55 20 56.1 20 0 20 C0 13.4 0 6.8 0 0 Z " fill="#FFFFFF" transform="translate(238,359)"/>
<path d="M0 0 C10.15266547 -0.02255146 20.30531443 -0.04091534 30.45799923 -0.05181217 C35.17179733 -0.05704089 39.88557747 -0.06413834 44.59936523 -0.07543945 C49.14455404 -0.08626873 53.68972552 -0.09227692 58.23492622 -0.09487724 C59.97294958 -0.09673142 61.71097194 -0.10035189 63.44898796 -0.10573006 C65.87478595 -0.11294103 68.30051146 -0.11399092 70.72631836 -0.11352539 C71.45208069 -0.11712067 72.17784302 -0.12071594 72.92559814 -0.12442017 C77.88594784 -0.11405216 77.88594784 -0.11405216 79 1 C79 7.27 79 13.54 79 20 C52.93 20 26.86 20 0 20 C0 13.4 0 6.8 0 0 Z " fill="#FFFFFF" transform="translate(238,506)"/>
<path d="M0 0 C10.15266547 -0.02255146 20.30531443 -0.04091534 30.45799923 -0.05181217 C35.17179733 -0.05704089 39.88557747 -0.06413834 44.59936523 -0.07543945 C49.14455404 -0.08626873 53.68972552 -0.09227692 58.23492622 -0.09487724 C59.97294958 -0.09673142 61.71097194 -0.10035189 63.44898796 -0.10573006 C65.87478595 -0.11294103 68.30051146 -0.11399092 70.72631836 -0.11352539 C71.45208069 -0.11712067 72.17784302 -0.12071594 72.92559814 -0.12442017 C77.88594784 -0.11405216 77.88594784 -0.11405216 79 1 C79 7.27 79 13.54 79 20 C52.93 20 26.86 20 0 20 C0 13.4 0 6.8 0 0 Z " fill="#FFFFFF" transform="translate(238,432)"/>
</svg>
