<?xml version="1.0" encoding="UTF-8"?>
<svg version="1.1" xmlns="http://www.w3.org/2000/svg" width="810" height="810">
<path d="M0 0 C2.22157812 1.4332762 2.78999929 2.31285966 3.55357361 4.81134033 C4.03553942 7.17423632 4.15995566 9.35764349 4.20532227 11.76855469 C4.22526749 12.70922791 4.24521271 13.64990112 4.26576233 14.61907959 C4.28247482 15.62650208 4.29918732 16.63392456 4.31640625 17.671875 C4.33718735 18.70942932 4.35796844 19.74698364 4.37937927 20.815979 C4.44471408 24.12725258 4.50368517 27.43860482 4.5625 30.75 C4.60570049 32.99610185 4.64931527 35.24219578 4.69335938 37.48828125 C4.80037903 42.99210457 4.90217522 48.49600598 5 54 C6.64355469 54.67289063 6.64355469 54.67289063 8.3203125 55.359375 C12.0934179 56.90412874 14.46880455 58.72433531 17 62 C17.40030894 64.3227803 17.7415213 66.65719307 18 69 C18.90415901 68.99000725 18.90415901 68.99000725 19.82658386 68.97981262 C26.10446841 68.91340364 32.38225303 68.86817623 38.66040039 68.83520508 C41.00288954 68.82012572 43.3453505 68.79965922 45.68774414 68.77368164 C49.05622317 68.73726179 52.42432864 68.72026487 55.79296875 68.70703125 C56.83897751 68.69154739 57.88498627 68.67606354 58.96269226 68.66011047 C68.1268063 68.65799295 68.1268063 68.65799295 72 72 C73.63023814 75.26047629 73.4673535 77.37801035 73 81 C71.09575492 84.06832423 68.5547757 86.46609665 66 89 C64.97293982 90.04978575 63.9469762 91.10064499 62.921875 92.15234375 C58.54464975 96.60685548 54.18523161 101.01698459 49.42578125 105.06640625 C43.16342672 110.48637236 37.44375538 116.48893871 31.625 122.375 C29.28672085 124.73984331 26.94515631 127.10136242 24.6015625 129.4609375 C24.06826324 130.0025351 23.53496399 130.54413269 22.98550415 131.10214233 C18.12824316 135.99184507 18.12824316 135.99184507 14.66093445 136.01690674 C13.68058731 135.96911072 12.70024017 135.9213147 11.69018555 135.87207031 C-22.12728491 132.52896656 -22.12728491 132.52896656 -52.19590759 143.13687134 C-56.59918616 147.48917548 -60.15634807 152.51646435 -63 158 C-61.71468721 160.77591335 -60.32368722 162.97289749 -58.3046875 165.265625 C-44.14367116 181.70383192 -32.07574464 199.78590842 -22 219 C-21.67660645 219.60054199 -21.35321289 220.20108398 -21.02001953 220.81982422 C14.42855159 286.77841987 22.30352399 368.98543906 0.84594727 440.65771484 C-0.35853778 444.46654701 -1.67239467 448.23270435 -3 452 C-3.60171018 453.76948104 -4.20326605 455.53901456 -4.8046875 457.30859375 C-21.18937904 504.68581359 -51.12687915 548.13777098 -89 581 C-89.61190186 581.53455811 -90.22380371 582.06911621 -90.85424805 582.61987305 C-107.67404183 597.21556187 -126.28181034 609.65990961 -146 620 C-146.90081299 620.48509033 -146.90081299 620.48509033 -147.81982422 620.97998047 C-215.07778951 657.12688055 -296.08920483 663.06987631 -368.92480469 641.97485352 C-407.51726753 630.30646123 -443.28705618 611.1743022 -474 585 C-475.08397548 584.10076639 -476.16864879 583.20237351 -477.25390625 582.3046875 C-490.03387325 571.64869977 -501.74147603 560.12011223 -512 547 C-512.92694648 545.87144098 -513.8568134 544.74527649 -514.7890625 543.62109375 C-564.26489873 483.62881097 -586.31215611 404.30781283 -579.23022461 327.24072266 C-576.83863751 305.42221602 -572.425101 283.67453496 -565 263 C-564.49895752 261.58726807 -564.49895752 261.58726807 -563.98779297 260.14599609 C-552.46154741 227.85902755 -536.51591684 198.73790587 -515 172 C-514.18015625 170.97390625 -513.3603125 169.9478125 -512.515625 168.890625 C-505.95540115 160.88161421 -498.73134302 153.52165669 -491.4375 146.1875 C-490.71332382 145.45542328 -490.71332382 145.45542328 -489.97451782 144.70855713 C-483.33218931 138.01027096 -476.40629175 131.84667818 -469 126 C-467.92804583 125.13062688 -466.85636034 124.26092217 -465.78515625 123.390625 C-427.05326617 92.93857943 -380.57622355 72.85745585 -332 65 C-330.58074219 64.75660889 -330.58074219 64.75660889 -329.1328125 64.50830078 C-299.19587755 59.5410251 -265.85233621 59.48244977 -236 65 C-234.53022705 65.24943359 -234.53022705 65.24943359 -233.03076172 65.50390625 C-207.8700774 69.78792628 -184.27855755 77.6350326 -161 88 C-160.20239258 88.350625 -159.40478516 88.70125 -158.58300781 89.0625 C-136.10160172 98.99817537 -116.0817653 112.62206629 -97 128 C-95.04176926 129.56262857 -93.08344745 131.12514304 -91.125 132.6875 C-89.74947669 133.79101468 -88.37425016 134.89490022 -87 136 C-86.00709961 135.1342334 -85.01419922 134.2684668 -83.99121094 133.37646484 C-81.43480995 131.16687867 -78.82500639 129.14087614 -76.07910156 127.17431641 C-69.34275784 121.94712191 -64.88139558 117.12491224 -63.74414062 108.42871094 C-63.22977399 100.73609801 -63.47195373 93.07264021 -63.75 85.375 C-63.83923859 81.39045481 -63.88579653 77.40557991 -63.93096924 73.4203186 C-63.96588012 70.9546731 -64.02379634 68.48921778 -64.10760498 66.02474976 C-64.1362262 64.91233917 -64.16484741 63.79992859 -64.19433594 62.65380859 C-64.24554596 61.19278214 -64.24554596 61.19278214 -64.29779053 59.70223999 C-63.67353759 54.0375828 -59.89468131 50.64556378 -56.00952148 46.76660156 C-55.51486389 46.27004562 -55.0202063 45.77348969 -54.51055908 45.2618866 C-52.8855722 43.63321561 -51.25353456 42.01182198 -49.62109375 40.390625 C-48.48637522 39.25709937 -47.35202698 38.12320296 -46.21803284 36.98895264 C-43.84643541 34.6189158 -41.47152637 32.25226653 -39.09399414 29.88818359 C-36.04332575 26.85455292 -32.99933021 23.81433238 -29.9575491 20.77179337 C-27.61846693 18.4329827 -25.276791 16.09678403 -22.93422127 13.76146698 C-21.81045646 12.64088784 -20.68729937 11.51969892 -19.56475639 10.39789581 C-17.99936612 8.83466741 -16.43073151 7.2747724 -14.86108398 5.71582031 C-13.9685643 4.82711243 -13.07604462 3.93840454 -12.15647888 3.02276611 C-8.44450784 -0.45904365 -4.93403771 -0.56620105 0 0 Z M-449.91796875 181.01171875 C-450.94543721 182.00768386 -451.97277898 183.00377968 -453 184 C-453.53963379 184.51385254 -454.07926758 185.02770508 -454.63525391 185.55712891 C-462.37485283 192.93368596 -469.2658728 200.64992463 -475.66162109 209.21728516 C-476.99065497 210.98755247 -478.34611651 212.73463894 -479.70703125 214.48046875 C-502.22319098 243.7655868 -516.13500639 278.91301692 -523 315 C-523.17789063 315.92361328 -523.35578125 316.84722656 -523.5390625 317.79882812 C-532.69503264 367.75699851 -523.01008271 420.72547545 -501 466 C-500.51128418 467.00836914 -500.51128418 467.00836914 -500.01269531 468.03710938 C-490.24556691 487.89525024 -476.95121754 506.00345582 -461.76171875 522.02734375 C-459.88253376 524.01600855 -458.10601562 526.05312762 -456.375 528.171875 C-454.44018673 530.47583027 -452.60395314 532.38887231 -450.3125 534.3125 C-447.2801639 536.88829479 -444.34813295 539.53759952 -441.4375 542.25 C-429.74357498 552.75139386 -416.56920114 561.14854449 -403 569 C-402.32275879 569.39429199 -401.64551758 569.78858398 -400.94775391 570.19482422 C-381.63847795 581.3010916 -360.64935326 588.94753808 -339 594 C-337.74243896 594.29729004 -337.74243896 594.29729004 -336.45947266 594.60058594 C-274.90060839 608.84620799 -209.39854565 596.49089983 -155.80517578 563.65527344 C-151.43454789 560.91075633 -147.18535579 558.01862538 -143 555 C-142.44554199 554.60103516 -141.89108398 554.20207031 -141.31982422 553.79101562 C-132.63503487 547.47388041 -124.72332036 540.44938351 -117 533 C-116.03392822 532.07477539 -116.03392822 532.07477539 -115.04833984 531.13085938 C-106.45073123 522.86099466 -98.39536954 514.455477 -91.33740234 504.82470703 C-90.42136791 503.57490029 -89.49675591 502.33134802 -88.56494141 501.09326172 C-51.02753572 451.17110777 -34.88466674 386.1050068 -43.59155273 324.3203125 C-44.02687168 321.53968552 -44.50196957 318.77004915 -45 316 C-45.16628906 315.05979004 -45.33257813 314.11958008 -45.50390625 313.15087891 C-52.78961537 273.34257379 -70.12954766 237.68261838 -95 206 C-96.37559382 204.22962791 -97.75067257 202.45885536 -99.125 200.6875 C-100.08296101 199.45804313 -101.04113125 198.22874903 -102 197 C-107.63568661 201.68820934 -112.83103966 206.69985408 -117.99609375 211.8984375 C-119.24641136 213.15087753 -119.24641136 213.15087753 -120.52198792 214.42861938 C-123.16286524 217.07505848 -125.80022896 219.72496759 -128.4375 222.375 C-130.23609649 224.17861643 -132.03492227 225.98200425 -133.83398438 227.78515625 C-138.22531248 232.18746261 -142.61376729 236.59261714 -147 241 C-145.46483104 245.05847318 -143.64411824 247.96666592 -140.9375 251.375 C-122.05260343 275.90348224 -111.21843309 305.50410615 -107 336 C-106.84917969 337.08925781 -106.69835937 338.17851562 -106.54296875 339.30078125 C-101.65549524 385.37336485 -115.46599512 432.72845842 -144.45068359 468.80566406 C-174.66141327 505.64129471 -216.55717488 529.11516786 -264 535 C-266.88659633 535.16362693 -269.76936597 535.20979412 -272.66015625 535.23828125 C-273.47884689 535.2480751 -274.29753754 535.25786896 -275.14103699 535.26795959 C-292.43319748 535.43226707 -309.18319721 535.54239079 -326 531 C-326.84852539 530.78037598 -327.69705078 530.56075195 -328.57128906 530.33447266 C-340.18579574 527.28063977 -351.21211617 523.26831689 -362 518 C-362.69722168 517.66097656 -363.39444336 517.32195312 -364.11279297 516.97265625 C-406.58546206 496.04770491 -437.64423015 458.80787532 -453.21826172 414.35058594 C-468.35538189 368.83522274 -464.17283584 319.56197289 -443.125 276.75 C-422.19037465 235.47931624 -385.76825889 203.93711014 -342 189 C-296.04263806 174.0369439 -246.17200417 176.84034222 -202.93774414 198.82958984 C-191.23328164 204.93689072 -180.37228157 211.8296553 -170 220 C-164.36431339 215.31179066 -159.16896034 210.30014592 -154.00390625 205.1015625 C-152.75358864 203.84912247 -152.75358864 203.84912247 -151.47801208 202.57138062 C-148.83713476 199.92494152 -146.19977104 197.27503241 -143.5625 194.625 C-141.76390351 192.82138357 -139.96507773 191.01799575 -138.16601562 189.21484375 C-133.77468752 184.81253739 -129.38623271 180.40738286 -125 176 C-127.24325629 173.0873382 -129.34899256 170.48503551 -132.29296875 168.2734375 C-132.91389404 167.80478271 -133.53481934 167.33612793 -134.17456055 166.85327148 C-134.83883057 166.36544189 -135.50310059 165.8776123 -136.1875 165.375 C-136.89237549 164.85429932 -137.59725098 164.33359863 -138.32348633 163.79711914 C-218.68101315 105.0685009 -326.37503359 98.99529519 -449.91796875 181.01171875 Z M-339 237 C-340.10472656 237.50144531 -341.20945312 238.00289062 -342.34765625 238.51953125 C-373.69161386 253.3410926 -397.86815398 281.20981409 -409.53564453 313.71411133 C-410.80356139 317.44494273 -411.92649756 321.20922171 -413 325 C-413.34160156 326.17820312 -413.68320312 327.35640625 -414.03515625 328.5703125 C-422.20494757 363.14942926 -413.82653835 400.11002996 -395.5 429.875 C-391.9885024 435.18991379 -388.10760845 440.13572683 -384 445 C-383.00226563 446.21816406 -383.00226563 446.21816406 -381.984375 447.4609375 C-361.17420684 471.89361641 -329.49712647 486.41231286 -298 490 C-293.41210136 490.27755382 -288.8455119 490.33452628 -284.25 490.3125 C-283.02571289 490.30758545 -281.80142578 490.3026709 -280.54003906 490.29760742 C-255.72448669 489.97798835 -230.33634145 482.49222591 -210 468 C-208.49759766 466.94232422 -208.49759766 466.94232422 -206.96484375 465.86328125 C-177.72568084 444.36912139 -158.33301042 413.90160768 -152.49609375 377.9375 C-148.03092702 342.49743654 -155.97425284 307.02811591 -177.5 278.125 C-178.33044495 277.08102918 -179.16323639 276.03891315 -180 275 C-185.71700538 279.75136274 -190.97689423 284.84614587 -196.21484375 290.1171875 C-197.07058487 290.97434357 -197.92632599 291.83149963 -198.80799866 292.71463013 C-201.52020465 295.43239954 -204.2288983 298.15363891 -206.9375 300.875 C-208.78427369 302.72679342 -210.63127653 304.57835834 -212.47851562 306.4296875 C-216.98833201 310.95048435 -221.49527569 315.47412946 -226 320 C-225.51716553 321.08104004 -225.03433105 322.16208008 -224.53686523 323.27587891 C-223.89808167 324.71768791 -223.25950199 326.15958726 -222.62109375 327.6015625 C-222.30346069 328.31127197 -221.98582764 329.02098145 -221.65856934 329.75219727 C-214.17843277 346.69808895 -213.50571296 365.59566153 -220 383 C-227.12723873 400.49730561 -239.85535878 413.47077443 -257.26953125 420.9375 C-275.32634022 427.96389777 -293.94248687 427.77000538 -311.90234375 420.40625 C-328.614768 412.81927304 -340.47533171 400.19092202 -347.74609375 383.37109375 C-354.92385213 364.07388041 -353.39931302 344.28055687 -344.9375 325.75 C-341.00636172 318.37491579 -335.99271662 312.73397816 -330 307 C-329.21882813 306.24847656 -328.43765625 305.49695313 -327.6328125 304.72265625 C-315.5547629 294.12894608 -299.99290484 289.59267582 -284.1875 289.6875 C-282.73283325 289.69487183 -282.73283325 289.69487183 -281.2487793 289.70239258 C-270.49523347 289.87814829 -261.92713107 292.1627357 -252.375 297.109375 C-249.55867462 298.16549702 -248.7735259 298.05568389 -246 297 C-243.79176025 295.22653553 -243.79176025 295.22653553 -241.59863281 292.93920898 C-240.7380426 292.07839218 -239.87745239 291.21757538 -238.99078369 290.33067322 C-238.07085632 289.39526199 -237.15092896 288.45985077 -236.203125 287.49609375 C-235.2454278 286.53279924 -234.28706453 285.57016651 -233.32806396 284.60816956 C-230.80940769 282.07807517 -228.29989162 279.53910072 -225.79217529 276.99816895 C-223.23019268 274.40546323 -220.65966499 271.82126044 -218.08984375 269.23632812 C-213.05150159 264.1658401 -208.02276666 259.0859212 -203 254 C-222.97183388 233.57259081 -254.77719139 225.24749505 -282.5625 224.8125 C-302.06497379 224.87233766 -321.31331787 228.62462407 -339 237 Z " fill="#FFFFFF" transform="translate(661,76)"/>
</svg>
