<?xml version="1.0" encoding="UTF-8"?>
<svg version="1.1" xmlns="http://www.w3.org/2000/svg" width="810" height="810">
<path d="M0 0 C45.18329813 -1.32355116 96.26891662 13.17994665 132.5546875 40.19921875 C133.39652588 40.80636719 133.39652588 40.80636719 134.25537109 41.42578125 C175.18805318 71.03418137 197.85069853 116.93112266 206.06152344 165.91699219 C213.49397877 215.38329388 202.63192709 265.33840207 173.18164062 306.09960938 C156.86318842 327.95672278 134.98044509 352.70749389 109.85571289 364.46191406 C107.26360718 366.02646415 107.26360718 366.02646415 106.92700195 369.08740234 C106.924021 370.24578613 106.92104004 371.40416992 106.91796875 372.59765625 C106.89798828 373.88285156 106.87800781 375.16804688 106.85742188 376.4921875 C106.85921611 377.85286729 106.8624776 379.21354592 106.8671875 380.57421875 C106.6809639 409.65374962 106.6809639 409.65374962 97.6953125 419.16796875 C91.79829958 424.74498872 86.15353523 426.44474224 78.00296021 426.45991516 C76.08960876 426.47054237 76.08960876 426.47054237 74.13760376 426.48138428 C72.74163782 426.47909092 71.34567223 426.47658128 69.94970703 426.47387695 C68.46575668 426.47822865 66.98180857 426.48341332 65.49786377 426.48936462 C61.48124769 426.5027172 57.46472592 426.50333744 53.44809198 426.50080132 C50.08841763 426.49972899 46.72876216 426.50462172 43.36909187 426.50940675 C35.4392434 426.52048916 27.5094423 426.52094658 19.57958984 426.51489258 C11.41402039 426.50885422 3.24862332 426.52116317 -4.91691673 426.54246265 C-11.94135535 426.56010814 -18.96573925 426.56607533 -25.99019921 426.5628249 C-30.1794867 426.56101648 -34.36865124 426.56360401 -38.55791855 426.57753944 C-42.49949542 426.59016114 -46.44080463 426.58813294 -50.38237762 426.57512856 C-51.82345548 426.57277258 -53.26455243 426.57546215 -54.70560837 426.58375168 C-64.04189094 426.63355745 -73.36078218 426.58338115 -80.7578125 420.13671875 C-81.68013672 419.37681641 -81.68013672 419.37681641 -82.62109375 418.6015625 C-87.90360011 411.64494278 -89.02878324 404.10572799 -88.8359375 395.59765625 C-88.83027771 394.63517975 -88.82461792 393.67270325 -88.81878662 392.68106079 C-88.79662113 389.64491341 -88.74646383 386.61000176 -88.6953125 383.57421875 C-88.67522181 381.5000172 -88.65697558 379.42579691 -88.640625 377.3515625 C-88.59682165 372.30031428 -88.52793466 367.24997508 -88.4453125 362.19921875 C-89.19151855 361.92086182 -89.93772461 361.64250488 -90.70654297 361.35571289 C-93.16544969 360.3173958 -95.09663517 359.22688144 -97.265625 357.6953125 C-97.96010742 357.20675781 -98.65458984 356.71820313 -99.37011719 356.21484375 C-100.09618164 355.6940625 -100.82224609 355.17328125 -101.5703125 354.63671875 C-102.32731445 354.09660156 -103.08431641 353.55648438 -103.86425781 353 C-114.17676979 345.58307618 -123.67345979 337.40884399 -132.8828125 328.67822266 C-134.33302933 327.30550179 -135.79495312 325.94517767 -137.2578125 324.5859375 C-145.31871094 316.8648153 -151.89935646 308.21042559 -158.4453125 299.19921875 C-158.89261719 298.59658203 -159.33992188 297.99394531 -159.80078125 297.37304688 C-187.64813821 259.62916767 -198.29419984 209.34233576 -191.65625 163.26171875 C-183.88850542 115.3441875 -157.11756893 74.12303525 -118.4453125 45.19921875 C-117.4965625 44.47863281 -116.5478125 43.75804687 -115.5703125 43.015625 C-82.22749322 18.15390074 -41.55577084 2.40288471 0 0 Z M-128.80078125 85.3125 C-144.5478187 102.50165905 -156.81638325 122.77403937 -163.6953125 145.07421875 C-163.92968018 145.82751465 -164.16404785 146.58081055 -164.40551758 147.35693359 C-168.4840205 161.34998882 -169.9790718 175.12595946 -169.8203125 189.63671875 C-169.81565979 190.40091125 -169.81100708 191.16510376 -169.80621338 191.95245361 C-169.72560331 203.2682765 -169.2780927 214.2013662 -166.4453125 225.19921875 C-166.24131836 226.02486328 -166.03732422 226.85050781 -165.82714844 227.70117188 C-153.57319406 276.46727269 -120.5052897 316.14839945 -78.0703125 342.27734375 C-72.4573351 345.66491894 -72.4573351 345.66491894 -66.4453125 348.19921875 C-66.4298513 349.210662 -66.4298513 349.210662 -66.41407776 350.24253845 C-66.30625481 357.23365457 -66.19163807 364.22463542 -66.07299805 371.21557617 C-66.02957126 373.82785219 -65.98790212 376.44015803 -65.94799805 379.05249023 C-65.89048243 382.79810594 -65.82673486 386.54357044 -65.76171875 390.2890625 C-65.74500626 391.4650853 -65.72829376 392.64110809 -65.71107483 393.85276794 C-65.69112961 394.93381302 -65.67118439 396.01485809 -65.65063477 397.12866211 C-65.62731834 398.56428749 -65.62731834 398.56428749 -65.60353088 400.02891541 C-65.6846264 402.17784569 -65.6846264 402.17784569 -64.4453125 403.19921875 C-62.5735031 403.29308256 -60.6981319 403.31665679 -58.82397461 403.31274414 C-57.62280502 403.31266861 -56.42163544 403.31259308 -55.18406677 403.31251526 C-53.22316856 403.30477333 -53.22316856 403.30477333 -51.22265625 403.296875 C-49.87887118 403.29501073 -48.53508543 403.29358687 -47.19129944 403.29258728 C-43.64848973 403.28876277 -40.1057208 403.27893307 -36.56292725 403.2678833 C-32.95016023 403.25766774 -29.33738666 403.25308935 -25.72460938 403.24804688 C-18.6314937 403.23731073 -11.53840576 403.22023511 -4.4453125 403.19921875 C-3.41980288 378.07838231 -3.1378201 352.95392988 -3.05242348 327.81406784 C-3.03189499 321.79404603 -2.99899532 315.77464069 -2.93774414 309.75488281 C-2.87770228 303.83702894 -2.84684363 297.919704 -2.83711052 292.00156021 C-2.82857288 289.76800391 -2.80979688 287.53446134 -2.7803669 285.30108261 C-2.74159479 282.20381832 -2.74039325 279.10867833 -2.74829102 276.01123047 C-2.72829041 275.10124802 -2.70828979 274.19126556 -2.68768311 273.25370789 C-2.74045828 268.65036938 -3.10676679 265.98230836 -6.36387634 262.58596802 C-9.0592292 259.99510107 -9.0592292 259.99510107 -11.4453125 260.19921875 C-11.4453125 259.53921875 -11.4453125 258.87921875 -11.4453125 258.19921875 C-12.88505573 256.74077931 -12.88505573 256.74077931 -14.80151367 255.21411133 C-20.06393459 250.73568093 -24.88456042 245.86671858 -29.74609375 240.9609375 C-30.71366734 239.98894733 -31.68154314 239.01725791 -32.64970398 238.04585266 C-35.68859874 234.9956451 -38.72348702 231.94147093 -41.7578125 228.88671875 C-45.29476003 225.32611085 -48.83336266 221.76717949 -52.37618065 218.21241188 C-53.78688934 216.79524133 -55.19453331 215.37502216 -56.60212708 213.95475769 C-57.45699203 213.09658951 -58.31185699 212.23842133 -59.19262695 211.35424805 C-59.94349075 210.59814743 -60.69435455 209.84204681 -61.4679718 209.06303406 C-63.50577751 207.03825277 -63.50577751 207.03825277 -66.4453125 205.19921875 C-64.78667745 200.87417039 -61.5742715 198.1050305 -58.3203125 194.94921875 C-57.75699219 194.39492188 -57.19367188 193.840625 -56.61328125 193.26953125 C-55.22845222 191.9081739 -53.83748046 190.55307016 -52.4453125 189.19921875 C-48.34758593 190.8090399 -45.68045956 193.77527701 -42.6953125 196.88671875 C-39.49735672 200.19888723 -36.27123807 203.38827821 -32.76855469 206.38037109 C-28.32364227 210.25020127 -24.15888832 214.35840623 -20.0078125 218.5390625 C-19.24227051 219.30601944 -18.47672852 220.07297638 -17.68798828 220.86317444 C-15.27138053 223.28532756 -12.85829524 225.71095487 -10.4453125 228.13671875 C-8.79580564 229.79124768 -7.14606821 231.44554677 -5.49609375 233.09960938 C-1.47649879 237.13016077 2.54021919 241.16356147 6.5546875 245.19921875 C10.36444987 243.89684519 12.68980428 242.41891334 15.48046875 239.53125 C16.19525391 238.80228516 16.91003906 238.07332031 17.64648438 237.32226562 C18.37931641 236.55978516 19.11214844 235.79730469 19.8671875 235.01171875 C24.66024829 230.0730243 29.48017899 225.30641398 34.70385742 220.82299805 C37.45444274 218.40984109 40.00181578 215.8180046 42.5546875 213.19921875 C46.39558411 209.30543544 50.29112288 205.59217349 54.48046875 202.0703125 C56.18865063 200.5294102 57.76530168 198.96225927 59.34765625 197.296875 C59.8367749 196.78648682 60.32589355 196.27609863 60.82983398 195.75024414 C61.79752633 194.73257331 62.75455112 193.70462862 63.69946289 192.66577148 C65.0390625 191.26171875 65.0390625 191.26171875 67.5546875 189.19921875 C70.85784014 189.5133951 72.40340216 190.71462755 74.5703125 193.140625 C75.09882813 193.72392578 75.62734375 194.30722656 76.171875 194.90820312 C76.71070313 195.51986328 77.24953125 196.13152344 77.8046875 196.76171875 C78.35898437 197.37724609 78.91328125 197.99277344 79.484375 198.62695312 C80.84875295 200.1442355 82.20274605 201.67084469 83.5546875 203.19921875 C82.20410636 206.21309948 80.69863975 208.30268645 78.359375 210.625 C77.72999023 211.2530957 77.10060547 211.88119141 76.45214844 212.52832031 C75.78473633 213.1828418 75.11732422 213.83736328 74.4296875 214.51171875 C73.74680664 215.1881543 73.06392578 215.86458984 72.36035156 216.56152344 C68.52267619 220.34063628 64.62577177 223.99143462 60.5078125 227.46484375 C57.40531823 230.21985866 54.53058854 233.20325448 51.61791992 236.15551758 C49.03398009 238.76091945 46.41233229 241.25997402 43.6171875 243.63671875 C39.55814459 247.09565675 35.83739852 250.85756904 32.11743164 254.67358398 C31.64297607 255.15641846 31.16852051 255.63925293 30.6796875 256.13671875 C30.21976662 256.61330901 29.75984573 257.08989927 29.28598785 257.58093166 C27.5546875 259.19921875 27.5546875 259.19921875 25.53144073 260.55947208 C22.09396611 262.98969443 19.89980674 264.85700542 18.82896423 269.02165031 C18.5692269 272.5612717 18.5652188 276.02165669 18.64648438 279.57006836 C18.64874366 280.92083603 18.64746903 282.27161351 18.64294434 283.62237549 C18.64065684 287.27354115 18.68755326 290.92258731 18.743536 294.57326198 C18.79368321 298.39415417 18.79825643 302.21509965 18.80773926 306.03627014 C18.83256484 313.26490263 18.89815849 320.49256257 18.97853518 327.72076756 C19.06807928 335.95279992 19.11197137 344.18487972 19.15209866 352.41727817 C19.23562965 369.34515345 19.37626418 386.27208314 19.5546875 403.19921875 C27.62120924 403.22234612 35.68771722 403.24013584 43.75426388 403.25103092 C47.49951787 403.25625889 51.24474926 403.26335497 54.98999023 403.2746582 C58.60150437 403.28549016 62.21299671 403.29149624 65.82452583 403.29409599 C67.20529079 403.29594969 68.5860545 403.29956924 69.96681023 403.30494881 C71.89444702 403.31216322 73.82210557 403.31262684 75.74975586 403.31274414 C76.84895859 403.31496475 77.94816132 403.31718536 79.08067322 403.31947327 C81.4982022 403.47968508 81.4982022 403.47968508 82.5546875 402.19921875 C83.56349443 394.54817164 83.58723804 386.96291279 83.30859375 379.2734375 C82.59598492 355.64761817 82.59598492 355.64761817 85.86181641 349.89794922 C89.35710755 346.62195423 93.66392738 345.46594648 98.16650391 344.10400391 C102.66897982 342.3981998 106.31841987 339.41404822 110.1171875 336.51171875 C110.91415039 335.91673584 111.71111328 335.32175293 112.53222656 334.70874023 C119.82124366 329.18398645 126.50462437 323.10831507 133.01953125 316.69921875 C134.33253518 315.41628362 135.67519181 314.16381603 137.0234375 312.91796875 C163.54487335 287.93400745 183.17150162 247.9870114 184.71582031 211.37963867 C184.76186532 207.04846315 184.80134993 202.71814344 184.8046875 198.38671875 C184.80536224 197.60199188 184.80603699 196.81726501 184.80673218 196.00875854 C184.7905117 184.13734004 184.23068414 172.80398371 181.5546875 161.19921875 C181.38839844 160.42223633 181.22210937 159.64525391 181.05078125 158.84472656 C171.69278142 115.36468661 149.37228623 78.31316324 111.85351562 53.65429688 C36.82217317 6.16207077 -56.14230717 18.16662429 -128.80078125 85.3125 Z " fill="#FEFEFE" transform="translate(396.4453125,89.80078125)"/>
<path d="M0 0 C62.37 0 124.74 0 189 0 C189 7.59 189 15.18 189 23 C176.79 23 164.58 23 152 23 C152 25.64 152 28.28 152 31 C149.96685687 43.62688894 143.75684707 56.10673241 133.49609375 63.90234375 C127.33884341 68.04513096 121.1113066 70.91583209 114 73 C113.25878906 73.22558594 112.51757812 73.45117188 111.75390625 73.68359375 C93.92646835 78.1636258 74.47543719 75.32341348 58.77685547 66.13525391 C47.59351198 58.99008391 42.15424534 47.88850828 38.76171875 35.4921875 C37.93581479 31.70573548 37.48069399 27.84555192 37 24 C18.685 23.505 18.685 23.505 0 23 C0 15.41 0 7.82 0 0 Z M61 23 C61.98564938 32.85649385 62.75992239 38.24814421 69.75 44.8125 C78.51349316 51.95011317 89.05251882 52.57459155 100 52 C107.92239573 51.15974591 116.04497435 48.88841469 121.85546875 43.17578125 C126.93697644 36.78939258 129 31.13641134 129 23 C106.56 23 84.12 23 61 23 Z " fill="#FEFEFE" transform="translate(310,627)"/>
<path d="M0 0 C62.37 0 124.74 0 189 0 C189 7.59 189 15.18 189 23 C126.63 23 64.26 23 0 23 C0 15.41 0 7.82 0 0 Z " fill="#FEFEFE" transform="translate(310,566)"/>
</svg>
