<?xml version="1.0" encoding="UTF-8"?>
<svg version="1.1" xmlns="http://www.w3.org/2000/svg" width="810" height="810">
<path d="M0 0 C7.8798059 7.00696586 14.70988126 14.34265021 20.92382812 22.83862305 C22.06304114 24.36319579 23.29460786 25.81786077 24.5390625 27.2578125 C25.5290625 27.2578125 26.5190625 27.2578125 27.5390625 27.2578125 C28.85144785 25.89601734 28.85144785 25.89601734 30.0390625 24.0078125 C34.35330677 17.95930627 39.44806068 12.64666275 44.5390625 7.2578125 C45.65474609 6.06091797 45.65474609 6.06091797 46.79296875 4.83984375 C76.01526987 -25.566418 120.12911806 -41.91560145 161.78125 -42.9453125 C199.82093284 -43.39287172 237.12392253 -34.64307426 267.5390625 -10.7421875 C268.80556641 -9.78119141 268.80556641 -9.78119141 270.09765625 -8.80078125 C289.31215379 6.2453409 304.44089568 24.57881244 315.5390625 46.2578125 C315.85713867 46.87479004 316.17521484 47.49176758 316.50292969 48.12744141 C338.67147617 91.71168404 339.22701348 142.02091334 324.64404297 188.08496094 C311.36649727 228.29052326 288.7117349 264.01595247 261.5390625 296.2578125 C261.10158691 296.78020508 260.66411133 297.30259766 260.21337891 297.84082031 C248.97076946 311.24441795 237.00983058 323.8667784 224.6640625 336.2578125 C223.78435791 337.14218994 222.90465332 338.02656738 221.99829102 338.93774414 C217.5564363 343.36865522 213.05483985 347.65928146 208.29492188 351.74707031 C205.88643523 353.8193333 203.56022903 355.9769837 201.2265625 358.1328125 C195.82429679 363.05405455 190.22600579 367.6718031 184.5390625 372.2578125 C183.35579701 373.23189116 182.17356197 374.2072225 180.9921875 375.18359375 C160.12229773 392.38076727 138.22668074 408.53527569 115.5390625 423.2578125 C114.75644043 423.76892578 113.97381836 424.28003906 113.16748047 424.80664062 C38.98361972 473.14957584 38.98361972 473.14957584 19.5300293 469.10229492 C14.19148884 467.59498846 9.3549109 465.18382236 4.4140625 462.6953125 C2.76567383 461.88187378 2.76567383 461.88187378 1.08398438 461.05200195 C-2.10595755 459.46987859 -5.28473834 457.86730941 -8.4609375 456.2578125 C-9.25338867 455.86142578 -10.04583984 455.46503906 -10.86230469 455.05664062 C-39.241017 440.82157554 -65.76935839 422.82538528 -91.4609375 404.2578125 C-92.22212891 403.70915527 -92.98332031 403.16049805 -93.76757812 402.59521484 C-104.36282719 394.93805338 -114.6738456 387.01522795 -124.74169922 378.67724609 C-127.15399468 376.68561221 -129.59089117 374.72462831 -132.0234375 372.7578125 C-141.99041193 364.58399689 -151.67261545 356.0887152 -161.09570312 347.29467773 C-163.78466761 344.78786619 -166.49953068 342.34627235 -169.3359375 340.0078125 C-171.67084842 338.04750688 -173.63449795 335.96421371 -175.6015625 333.63671875 C-179.61758446 328.99764842 -183.95416711 324.73566133 -188.3359375 320.4453125 C-194.0162464 314.82339823 -199.42878173 309.23348785 -204.34765625 302.9296875 C-206.37111077 300.3713827 -208.48068838 297.92878828 -210.63549805 295.48217773 C-254.68567241 245.27621008 -286.1202866 180.10956955 -282.4609375 112.2578125 C-279.43126282 72.50717764 -262.87654009 36.12560592 -235.4609375 7.2578125 C-235.01379395 6.7834375 -234.56665039 6.3090625 -234.10595703 5.8203125 C-171.78347427 -59.90391237 -66.85735849 -56.35408767 0 0 Z M-210.2109375 28.6328125 C-235.60095986 54.91632538 -249.80068979 89.90175093 -249.52563477 126.46826172 C-248.29337591 179.59954369 -222.70338093 227.99522574 -189.4609375 268.2578125 C-188.74550781 269.14597656 -188.03007812 270.03414063 -187.29296875 270.94921875 C-182.20912435 277.24058557 -176.91733148 283.2887372 -171.4609375 289.2578125 C-170.73390625 290.07765625 -170.006875 290.8975 -169.2578125 291.7421875 C-162.67340937 299.09123099 -155.7404588 306.08663949 -148.7734375 313.0703125 C-148.2761615 313.5701767 -147.7788855 314.07004089 -147.26654053 314.58505249 C-142.04974032 319.82323215 -136.79746548 324.97338661 -131.17944336 329.78442383 C-128.75827121 331.86025476 -126.42738412 334.03037493 -124.0859375 336.1953125 C-119.88859682 340.0236562 -115.5847755 343.6266042 -111.1171875 347.1328125 C-108.61521087 349.1343938 -106.17536769 351.19005191 -103.74316406 353.27490234 C-97.74793244 358.41341996 -91.62034784 363.27971257 -85.24560547 367.94580078 C-83.20685071 369.44460627 -81.17957963 370.95830884 -79.15234375 372.47265625 C-51.1603607 393.32701989 -21.98573788 412.77616306 8.9765625 428.9453125 C10.72851929 429.86461548 10.72851929 429.86461548 12.51586914 430.80249023 C13.61535889 431.36911377 14.71484863 431.9357373 15.84765625 432.51953125 C16.82532959 433.02444092 17.80300293 433.52935059 18.81030273 434.04956055 C22.54939473 435.70517174 25.05900693 436.71814644 29.05249023 435.47607422 C29.93364502 435.05084473 30.8147998 434.62561523 31.72265625 434.1875 C32.72127686 433.71006348 33.71989746 433.23262695 34.7487793 432.74072266 C35.81394775 432.2101123 36.87911621 431.67950195 37.9765625 431.1328125 C39.08749268 430.58802246 40.19842285 430.04323242 41.34301758 429.48193359 C52.41998348 423.96512999 63.03507319 417.78883886 73.5390625 411.2578125 C74.48475098 410.67177246 75.43043945 410.08573242 76.40478516 409.48193359 C87.10491967 402.8265111 97.60644639 395.98484635 107.77148438 388.53808594 C110.45682856 386.59306592 113.17826637 384.70039963 115.89599609 382.80102539 C123.39233789 377.55590955 130.73574196 372.17001062 137.93115234 366.51855469 C139.61453752 365.19863349 141.30483703 363.88794133 142.99609375 362.578125 C149.40468455 357.59907483 155.69514459 352.50944424 161.86206055 347.23364258 C165.14368153 344.42673716 168.4740941 341.69970523 171.8515625 339.0078125 C182.70791887 330.1701344 192.73931855 320.23940737 202.5390625 310.2578125 C205.51502045 307.27135734 208.50531611 304.29967907 211.5 301.33203125 C212.97141134 299.8698492 214.4427641 298.4076082 215.9140625 296.9453125 C216.64367187 296.22408203 217.37328125 295.50285156 218.125 294.75976562 C222.8115983 290.09408964 227.2597276 285.29885145 231.5390625 280.2578125 C232.35431396 279.30249634 232.35431396 279.30249634 233.18603516 278.32788086 C269.33332173 235.68311146 300.74046264 184.29088381 300.7890625 126.8203125 C300.78973724 126.10438934 300.79041199 125.38846619 300.79110718 124.65084839 C300.7749734 113.87785866 300.25485809 103.73460116 297.5390625 93.2578125 C297.3834082 92.59958496 297.22775391 91.94135742 297.06738281 91.26318359 C289.25390318 58.42629464 267.86558349 28.45420386 239.36376953 10.37988281 C207.23685345 -9.37597835 169.45109785 -14.33713712 132.7265625 -5.9921875 C108.28420316 0.06695677 87.82238462 12.0357114 69.5390625 29.2578125 C68.81332031 29.9075 68.08757812 30.5571875 67.33984375 31.2265625 C56.5247773 41.32321341 48.62440129 54.28915406 41.92407227 67.36889648 C39.1322659 72.69640783 36.47884315 76.27788562 30.5390625 78.2578125 C24.84643412 78.82165379 20.38962112 78.56501156 15.5390625 75.2578125 C11.50942338 70.88800904 8.90976806 66.43710618 6.2890625 61.1328125 C-9.25386512 30.82736896 -37.07675742 8.14967315 -69.1484375 -2.6796875 C-119.13257728 -18.6265767 -172.38546787 -7.9176413 -210.2109375 28.6328125 Z " fill="#404040" transform="translate(380.4609375,184.7421875)"/>
</svg>
