<?xml version="1.0" encoding="UTF-8"?>
<svg version="1.1" xmlns="http://www.w3.org/2000/svg" width="810" height="810">
<path d="M0 0 C0.69842776 -0.00380567 1.39685551 -0.00761134 2.11644775 -0.01153234 C4.46836245 -0.0218793 6.8200372 -0.01793629 9.17196846 -0.01409245 C10.87056468 -0.01854316 12.56915882 -0.02385665 14.26774991 -0.02996117 C18.94459317 -0.04417142 23.62137008 -0.04580389 28.29823184 -0.04536426 C33.33855556 -0.04700978 38.37885172 -0.06007124 43.41916084 -0.07155704 C54.44376823 -0.09442562 65.4683564 -0.10232946 76.49298429 -0.10738349 C83.37368463 -0.11063797 90.25437936 -0.11715888 97.13507652 -0.12438488 C116.17746679 -0.14395224 135.21985184 -0.16035598 154.26225281 -0.16326141 C156.09076178 -0.16354277 156.09076178 -0.16354277 157.95621032 -0.16382981 C160.42753418 -0.16419606 162.89885804 -0.16455976 165.3701819 -0.16492092 C166.59698613 -0.16510373 167.82379035 -0.16528654 169.08777046 -0.16547489 C170.93021659 -0.16574572 170.93021659 -0.16574572 172.80988385 -0.16602201 C192.72252614 -0.16956532 212.63506041 -0.19659692 232.54766522 -0.23397278 C252.98071086 -0.27201936 273.41370285 -0.29141862 293.84678471 -0.29172093 C305.32370126 -0.29230627 316.80048891 -0.30084823 328.27737236 -0.32971859 C338.04803623 -0.35418355 347.81852418 -0.36154838 357.58921038 -0.34647106 C362.57631645 -0.33928246 367.5630748 -0.34024343 372.55014229 -0.36288166 C377.11364749 -0.38339917 381.67653601 -0.38093935 386.240034 -0.36000682 C387.89277391 -0.35649804 389.54555766 -0.36148035 391.19824003 -0.37571125 C393.44249214 -0.39379384 395.68455657 -0.3811417 397.92874146 -0.36076355 C399.17585305 -0.36157801 400.42296465 -0.36239246 401.7078675 -0.3632316 C406.23842495 0.47165336 407.8712995 1.99955452 411.09021187 5.26006222 C411.99784849 7.98297208 412.21644002 9.55393344 412.2201637 12.3511427 C412.22369212 13.18916263 412.22722054 14.02718255 412.23085588 14.89059702 C412.22965811 15.81312559 412.22846033 16.73565417 412.22722626 17.68613815 C412.22987808 18.66874722 412.23252991 19.65135628 412.2352621 20.66374138 C412.24298072 23.988323 412.24351525 27.31286785 412.24411201 30.63745785 C412.24812493 33.0322806 412.25256287 35.42710267 412.25739157 37.82192391 C412.26812214 43.73394619 412.27411747 49.64596274 412.27810045 55.55799239 C412.28310662 62.63668739 412.29383359 69.71537085 412.30458218 76.79405904 C412.33022016 93.90400883 412.34524851 111.01396311 412.35809265 128.1239266 C412.36234624 133.78951023 412.36691193 139.45509353 412.37167597 145.12067676 C412.39693278 175.23196928 412.41898532 205.34326235 412.43140411 235.45456314 C412.43432554 242.43196585 412.43729304 249.40936854 412.44030952 256.3867712 C412.44068043 257.25364159 412.44105134 258.12051199 412.44143349 259.01365118 C412.45359397 287.13124527 412.48454629 315.24877683 412.52623105 343.36634155 C412.56899147 372.26206875 412.59564157 401.15776292 412.60087883 430.05352263 C412.60161931 434.13230458 412.60253 438.21108647 412.60353661 442.28986835 C412.60372722 443.09263474 412.60391784 443.89540114 412.60411423 444.72249378 C412.60763157 457.65608826 412.62794664 470.58960457 412.65433324 483.52317032 C412.68044213 496.51621699 412.68822046 509.50917308 412.67723195 522.50224224 C412.67124333 530.22625996 412.67922843 537.94997101 412.70706279 545.67394248 C412.72628901 551.4342653 412.71953662 557.19431998 412.70249362 562.95463886 C412.69967514 565.29044715 412.70539355 567.6262838 412.72030656 569.96204618 C412.7392875 573.12738214 412.72770756 576.29116436 412.70824432 579.45646286 C412.72109354 580.37196794 412.73394276 581.28747301 412.74718136 582.23072067 C412.68849638 586.54824142 412.4407211 589.38202777 409.67658484 592.81028718 C405.96417177 596.3266311 403.51797453 596.80084117 398.51989937 596.72099972 C391.31941293 595.35499104 386.10134728 587.15073942 381.51599312 581.93974972 C378.92286143 579.07519523 376.21707149 576.34513451 373.46521187 573.63506222 C369.78638865 569.99700159 366.31926761 566.28837761 362.96521187 562.35381222 C360.60675913 559.72020666 358.10575507 557.24180004 355.59021187 554.76006222 C352.49529685 551.70668271 349.4708691 548.63682537 346.65271187 545.32256222 C343.63668382 541.78327148 340.39573609 538.52511476 337.09021187 535.26006222 C333.19125504 531.40884284 329.48196889 527.49584493 325.93005562 523.31865597 C323.58526123 520.69507499 321.09390619 518.23016117 318.59021187 515.76006222 C315.49530054 512.70667939 312.4708693 509.63682561 309.65271187 506.32256222 C306.63668382 502.78327148 303.39573609 499.52511476 300.09021187 496.26006222 C296.19125504 492.40884284 292.48196889 488.49584493 288.93005562 484.31865597 C286.58526123 481.69507499 284.09390619 479.23016117 281.59021187 476.76006222 C278.49530054 473.70667939 275.4708693 470.63682561 272.65271187 467.32256222 C269.63668382 463.78327148 266.39573609 460.52511476 263.09021187 457.26006222 C259.19125504 453.40884284 255.48196889 449.49584493 251.93005562 445.31865597 C249.58526123 442.69507499 247.09390619 440.23016117 244.59021187 437.76006222 C241.49530054 434.70667939 238.4708693 431.63682561 235.65271187 428.32256222 C232.63668382 424.78327148 229.39573609 421.52511476 226.09021187 418.26006222 C222.19786074 414.41536767 218.49179062 410.5116748 214.94958687 406.33818722 C211.62106928 402.61807933 208.01324436 399.16686227 204.44568062 395.67803097 C202.09021187 393.26006222 202.09021187 393.26006222 200.09021187 390.26006222 C196.10039622 391.81887391 193.71855166 394.61422923 190.96521187 397.76006222 C187.35981386 401.79334293 183.69718522 405.71206399 179.84021187 409.51006222 C176.99178433 412.32271672 174.25208042 415.15364607 171.65271187 418.19756222 C168.78848813 421.54931341 165.72686718 424.66562299 162.59021187 427.76006222 C159.49529315 430.8134384 156.4708689 433.8832993 153.65271187 437.19756222 C150.1531069 441.30432756 146.33039178 445.04731028 142.49499702 448.83574581 C139.1397663 452.1657255 135.99303312 455.5992871 132.93005562 459.20146847 C130.13185395 462.33236503 127.12247531 465.24835917 124.13464546 468.19609737 C121.52900448 470.78028539 119.02968078 473.40215379 116.65271187 476.19756222 C113.1531069 480.30432756 109.33039178 484.04731028 105.49499702 487.83574581 C102.1397663 491.1657255 98.99303312 494.5992871 95.93005562 498.20146847 C93.13185395 501.33236503 90.12247531 504.24835917 87.13464546 507.19609737 C84.52900448 509.78028539 82.02968078 512.40215379 79.65271187 515.19756222 C76.6366836 518.73685322 73.39573286 521.99500667 70.09021187 525.26006222 C66.80553196 528.50458097 63.58287183 531.7392858 60.59021187 535.26006222 C57.11477637 539.34880986 53.30920949 543.06822906 49.49475288 546.83598995 C46.13960293 550.16588552 42.99295735 553.59937621 39.93005562 557.20146847 C37.13185395 560.33236503 34.12247531 563.24835917 31.13464546 566.19609737 C28.52900448 568.78028539 26.02968078 571.40215379 23.65271187 574.19756222 C19.23822616 579.37095468 14.34815308 584.08192256 9.51111031 588.85527706 C7.36130385 590.98070427 5.22595496 593.12051887 3.09021187 595.26006222 C1.44864451 596.90162958 -0.40194614 596.54822214 -2.65978813 596.63506222 C-6.72015981 596.6118269 -7.62619276 596.47999332 -10.97228813 593.88506222 C-14.38234124 589.26499026 -14.05186408 585.51732443 -14.0412159 579.93862343 C-14.04326853 578.95518024 -14.04532116 577.97173705 -14.047436 576.95849255 C-14.05314229 573.62505881 -14.0516443 570.29166591 -14.05023003 566.95822811 C-14.05281158 564.55943116 -14.05582415 562.16063465 -14.05923343 559.76183873 C-14.06648027 553.8361349 -14.06900724 547.91043944 -14.06956248 541.98473221 C-14.07047465 534.89052052 -14.07713778 527.79631721 -14.08390931 520.70210912 C-14.0999866 503.55371187 -14.10587444 486.4053155 -14.11065806 469.25691207 C-14.11299216 461.14854713 -14.11659459 453.0401829 -14.12035343 444.93181852 C-14.13319013 417.18945621 -14.14390949 389.4470943 -14.14735603 361.70472908 C-14.14757767 359.96248494 -14.14779945 358.2202408 -14.14802139 356.47799667 C-14.14824203 354.73148532 -14.14846251 352.98497397 -14.14868283 351.23846263 C-14.14912539 347.7345134 -14.14957251 344.23056418 -14.15002251 340.72661495 C-14.1501319 339.85783607 -14.15024129 338.98905719 -14.15035399 338.09395168 C-14.15398585 309.91420173 -14.16991012 281.73447749 -14.19321287 253.5547374 C-14.21779083 223.77860482 -14.23152792 194.00248695 -14.23272395 164.22634393 C-14.23289541 160.95972907 -14.23311084 157.69311422 -14.23335838 154.42649937 C-14.23341415 153.6221359 -14.23346992 152.81777244 -14.23352738 151.98903432 C-14.23467957 139.02638646 -14.24571581 126.06376491 -14.26024544 113.10112595 C-14.27458863 100.07998266 -14.27785977 87.05887323 -14.26980546 74.03772422 C-14.26533896 66.29580363 -14.2692504 58.55399204 -14.28504397 50.8120857 C-14.29589933 45.04017028 -14.29118512 39.26835319 -14.2802721 33.49644176 C-14.27830079 31.15456926 -14.28145888 28.812686 -14.29011646 26.47082867 C-14.30110127 23.30003437 -14.29379788 20.12980225 -14.28172493 16.95902443 C-14.28932012 16.03900215 -14.29691532 15.11897986 -14.30474067 14.17107812 C-14.26541231 9.42245095 -14.13453447 6.03023794 -10.90978813 2.26006222 C-7.51361969 -0.24744191 -4.11869988 0.00644478 0 0 Z M19.09021187 22.26006222 C19.09021187 188.58006222 19.09021187 354.90006222 19.09021187 526.26006222 C20.74021187 524.61006222 22.39021187 522.96006222 24.09021187 521.26006222 C25.33688936 520.02366041 26.5842419 518.78793872 27.83239937 517.55303097 C29.21005582 516.18459402 30.58765881 514.81610325 31.96521187 513.44756222 C32.98808296 512.43725948 32.98808296 512.43725948 34.03161812 511.40654659 C38.01021828 507.44689215 41.77827642 503.37988075 45.44226265 499.12847042 C47.86890618 496.37719591 50.46458482 493.81961388 53.09021187 491.26006222 C56.37694373 488.01790995 59.59779522 484.78055239 62.59021187 481.26006222 C66.06631764 477.17052602 69.87270843 473.45045682 73.68786812 469.68193722 C76.43346673 466.9569822 79.08291139 464.20982749 81.59021187 461.26006222 C85.06631764 457.17052602 88.87270843 453.45045682 92.68786812 449.68193722 C95.43346673 446.9569822 98.08291139 444.20982749 100.59021187 441.26006222 C104.06631764 437.17052602 107.87270843 433.45045682 111.68786812 429.68193722 C114.43346673 426.9569822 117.08291139 424.20982749 119.59021187 421.26006222 C123.06631764 417.17052602 126.87270843 413.45045682 130.68786812 409.68193722 C133.43346673 406.9569822 136.08291139 404.20982749 138.59021187 401.26006222 C142.06631764 397.17052602 145.87270843 393.45045682 149.68786812 389.68193722 C152.43346673 386.9569822 155.08291139 384.20982749 157.59021187 381.26006222 C160.58287249 377.73928501 163.80554157 374.50458989 167.09021187 371.26006222 C170.33318035 368.05663008 173.51957329 364.86899008 176.46521187 361.38506222 C177.66684967 360.00420704 178.87656978 358.63037872 180.09021187 357.26006222 C180.58247261 356.69899776 181.07473335 356.13793331 181.58191109 355.55986691 C191.77834274 344.1010199 191.77834274 344.1010199 197.04333687 342.18584347 C201.23484711 342.00387671 203.1560483 342.4096286 206.31286812 345.28349972 C207.23918934 346.27518311 208.1648829 347.2674529 209.09021187 348.26006222 C210.47879813 349.64623924 211.87251817 351.02728293 213.26989937 352.40459347 C214.83506502 353.96052121 216.40016757 355.51651242 217.96521187 357.07256222 C218.74251656 357.841488 219.51982124 358.61041378 220.32068062 359.40264034 C224.54810853 363.61230596 228.58805751 367.9038141 232.4774189 372.42681026 C234.8895228 375.1686341 237.4765835 377.71220728 240.09021187 380.26006222 C243.97001969 384.08724626 247.65286317 387.98082845 251.18396187 392.13506222 C253.71271626 394.95400154 256.39667188 397.59945059 259.09021187 400.26006222 C262.9674915 404.08994235 266.65264793 407.98057523 270.18396187 412.13506222 C272.71271626 414.95400154 275.39667188 417.59945059 278.09021187 420.26006222 C281.9674915 424.08994235 285.65264793 427.98057523 289.18396187 432.13506222 C291.71271626 434.95400154 294.39667188 437.59945059 297.09021187 440.26006222 C300.9674915 444.08994235 304.65264793 447.98057523 308.18396187 452.13506222 C310.71271626 454.95400154 313.39667188 457.59945059 316.09021187 460.26006222 C319.9674915 464.08994235 323.65264793 467.98057523 327.18396187 472.13506222 C329.71271626 474.95400154 332.39667188 477.59945059 335.09021187 480.26006222 C338.9674915 484.08994235 342.65264793 487.98057523 346.18396187 492.13506222 C348.71271626 494.95400154 351.39667188 497.59945059 354.09021187 500.26006222 C357.37488857 503.50458395 360.59755169 506.73928554 363.59021187 510.26006222 C366.71583833 513.929952 370.06447452 517.34736448 373.46521187 520.76006222 C374.0021064 521.30146847 374.53900093 521.84287472 375.09216499 522.40068722 C377.23188874 525.05691451 377.23188874 525.05691451 380.09021187 526.26006222 C380.09021187 359.94006222 380.09021187 193.62006222 380.09021187 22.26006222 C260.96021187 22.26006222 141.83021187 22.26006222 19.09021187 22.26006222 Z " fill="#FFFFFF" transform="translate(205.90978813171387,106.7399377822876)"/>
</svg>
